<svg xmlns="http://www.w3.org/2000/svg" version="1.1" xmlns:xlink="http://www.w3.org/1999/xlink" xmlns:svgjs="http://svgjs.com/svgjs" width="1443" height="558" preserveAspectRatio="none" viewBox="0 0 1443 558"><g mask="url(&quot;#SvgjsMask1088&quot;)" fill="none"><rect width="1443" height="558" x="0" y="0" fill="url(#SvgjsLinearGradient1089)"></rect><path d="M1246.25-46.97C1123.97-41.25 1029.52 168.41 806.76 168.91 583.99 169.41 587.01 99.16 367.26 99.16 147.52 99.16 39.02 168.69-72.23 168.91" stroke="rgba(51,121,194,0.58)" stroke-width="2"></path><path d="M1317.24-78.08C1108.72-54.43 986.25 403.51 631.82 406.54 277.38 409.57 120.47 284.26-53.61 283.78" stroke="rgba(51,121,194,0.58)" stroke-width="2"></path><path d="M815.57-67.41C630.02-19.24 566.13 484.89 288.41 489.44 10.69 493.99-97.26 286.62-238.75 282.98" stroke="rgba(51,121,194,0.58)" stroke-width="2"></path><path d="M1127.77-103.43C949.56-103.28 784.4-20.78 420.04-18.25 55.69-15.72-99.04 239.84-287.68 244.01" stroke="rgba(51,121,194,0.58)" stroke-width="2"></path><path d="M618.71-99.46C458.78-40.47 427.89 432.32 201.16 439.58-25.57 446.84-102.37 259.47-216.39 255.44" stroke="rgba(51,121,194,0.58)" stroke-width="2"></path></g><defs><mask id="SvgjsMask1088"><rect width="1443" height="558" fill="#ffffff"></rect></mask><linearGradient x1="100%" y1="50%" x2="0%" y2="50%" gradientUnits="userSpaceOnUse" id="SvgjsLinearGradient1089"><stop stop-color="#0e2a47" offset="0"></stop><stop stop-color="rgba(17, 24, 39, 1)" offset="1"></stop></linearGradient></defs></svg>