<svg xmlns="http://www.w3.org/2000/svg" xmlns:xlink="http://www.w3.org/1999/xlink" width="500" zoomAndPan="magnify" viewBox="0 0 375 374.999991" height="500" preserveAspectRatio="xMidYMid meet" version="1.0"><defs><g/><clipPath id="76a24275a2"><path d="M 50 61 L 317 61 L 317 324.710938 L 50 324.710938 Z M 50 61 " clip-rule="nonzero"/></clipPath><clipPath id="c7d4e306c6"><path d="M 317 217 L 325.519531 217 L 325.519531 252 L 317 252 Z M 317 217 " clip-rule="nonzero"/></clipPath><clipPath id="1b97cfdd11"><path d="M 198 50.210938 L 202 50.210938 L 202 51 L 198 51 Z M 198 50.210938 " clip-rule="nonzero"/></clipPath></defs><g clip-path="url(#76a24275a2)"><path fill="#d9d9d9" d="M 57.15625 225.292969 L 57.054688 225.382812 L 57.394531 226.496094 Z M 316.519531 174.507812 C 316.492188 175.703125 316.183594 175.746094 315.832031 174.261719 C 315.335938 172.167969 314.792969 170.03125 314.351562 167.582031 C 313.253906 162.960938 311.796875 158.226562 310.554688 153.480469 C 306.210938 140.46875 299.984375 128.148438 292.1875 116.820312 L 286.273438 108.910156 L 279.589844 101.628906 C 277.832031 99.546875 275.703125 97.824219 273.703125 96.113281 C 271.574219 94.292969 269.636719 92.691406 268.082031 91.519531 C 266.460938 90.429688 265.167969 89.847656 264.558594 89.777344 C 263.691406 89.707031 261.488281 88.382812 258.214844 86.0625 C 248.449219 79.976562 238.300781 74.488281 226.898438 70.773438 L 222.417969 69.1875 L 217.804688 68.101562 C 216.464844 67.789062 215.085938 67.710938 215.742188 67.992188 C 216.28125 68.226562 217.003906 68.515625 217.859375 68.769531 C 219.265625 69.171875 220.832031 69.617188 222.335938 70.046875 C 233.46875 73.890625 244.113281 78.738281 253.664062 85.316406 C 258.039062 88.210938 262.128906 91.585938 266.257812 94.875 C 269.347656 97.824219 272.527344 100.539062 275.027344 103.421875 C 276.789062 105.644531 278.988281 108.042969 281.113281 110.410156 C 284.210938 113.984375 286.769531 117.980469 289.640625 121.71875 C 291.972656 125.816406 294.59375 129.75 296.699219 133.957031 C 296.835938 134.257812 296.96875 134.699219 296.945312 134.761719 C 296.921875 134.828125 296.703125 134.59375 296.59375 134.371094 C 294.742188 130.660156 292.199219 127.296875 290.164062 123.703125 C 285.757812 117.082031 280.847656 110.992188 275.34375 105.441406 C 274.296875 104.289062 273.21875 103.109375 272.023438 102.101562 C 262.449219 92.351562 250.933594 84.65625 238.753906 78.585938 C 235.925781 77.21875 233.128906 75.652344 230.246094 74.667969 C 219.878906 69.953125 208.410156 67.625 196.867188 66.011719 C 184.730469 65.191406 172.425781 65.140625 160.46875 67.550781 C 140.601562 70.914062 121.953125 79.828125 105.96875 91.902344 C 95.097656 100.257812 85.484375 110.296875 77.5625 121.539062 C 69.535156 133.28125 63.515625 146.480469 59.753906 160.242188 C 59.105469 162.804688 58.328125 165.332031 57.738281 167.902344 L 56.445312 175.699219 C 54.421875 190.394531 54.808594 205.484375 57.734375 220.074219 C 58.40625 222.636719 59.089844 225.226562 59.757812 227.773438 C 63.25 239.445312 67.867188 250.789062 74.417969 261.148438 C 76.15625 264.398438 78.371094 267.390625 80.65625 270.347656 L 84.007812 274.84375 L 87.761719 279.003906 C 90.273438 281.753906 92.675781 284.609375 95.539062 287.003906 L 97.316406 288.792969 C 96.707031 288.320312 96.140625 287.886719 95.472656 287.367188 C 94.378906 286.472656 93.222656 285.519531 92.089844 284.59375 L 92.375 284.828125 C 89.691406 282.167969 87.015625 279.308594 84.28125 276.445312 C 81.703125 273.445312 79.386719 270.167969 76.910156 267.0625 C 76.007812 265.996094 75.273438 264.980469 74.5625 263.980469 C 74.433594 263.808594 74.40625 263.941406 74.488281 264.15625 C 74.578125 264.394531 74.824219 264.890625 75.054688 265.277344 C 77.445312 268.839844 80.132812 272.21875 82.621094 275.714844 C 85.828125 279.382812 89.003906 282.984375 92.476562 286.332031 C 101.046875 294.332031 110.632812 301.15625 120.878906 306.804688 C 127.09375 309.8125 133.25 312.945312 139.582031 314.644531 C 142.257812 315.464844 145.449219 316.792969 148.570312 317.414062 L 156.332031 319.371094 C 158.917969 320.023438 161.601562 320.203125 164.230469 320.65625 C 169.484375 321.675781 174.828125 321.800781 180.164062 322.0625 C 192.921875 322.226562 205.863281 321.25 218.128906 317.660156 C 222.0625 316.890625 225.738281 315.367188 229.507812 314.078125 C 233.328125 312.90625 236.914062 311.121094 240.527344 309.300781 C 242.386719 308.320312 244.457031 307.523438 246.253906 306.453125 C 256.480469 300.882812 266.027344 293.773438 274.566406 285.714844 C 284.542969 275.96875 292.917969 264.925781 299.5625 252.925781 C 302.109375 247.988281 304.707031 243.238281 306.527344 238.203125 C 308.773438 233.324219 310.226562 228.238281 311.734375 223.105469 C 313.285156 218.699219 313.695312 214.773438 314.71875 212.199219 C 315.625 209.5 316.222656 208.730469 316.214844 212.054688 C 316.214844 213.324219 316.199219 214.6875 316.300781 215.464844 C 316.476562 217.03125 316.527344 218.808594 316.183594 221.039062 C 315.714844 223.246094 314.972656 225.929688 313.929688 229.378906 C 313.136719 232.425781 311.988281 235.382812 310.738281 238.355469 C 309.464844 241.3125 308.539062 244.460938 306.996094 247.429688 C 306 249.382812 305.011719 251.304688 304.03125 253.21875 C 302.207031 256.757812 301.347656 257.753906 302.066406 255.5 C 302.476562 254.246094 302.960938 252.769531 303.355469 251.566406 C 303.648438 250.609375 302.9375 251.203125 302.167969 252.585938 C 300.871094 255.117188 299.320312 257.503906 297.601562 260.042969 C 291.675781 270.382812 283.683594 279.453125 275.246094 287.804688 C 274.046875 288.886719 272.792969 290.019531 271.613281 291.085938 C 260.785156 301.128906 248.203125 308.800781 234.765625 314.464844 C 217.714844 321.421875 199.242188 324.730469 180.757812 324.347656 L 170.996094 323.863281 C 155.320312 322.242188 139.996094 317.816406 125.902344 310.859375 C 120.648438 308.625 115.964844 305.285156 111.03125 302.433594 C 108.652344 300.871094 106.441406 299.0625 104.132812 297.40625 C 101.824219 295.75 99.535156 294.078125 97.496094 292.121094 C 85.546875 282.003906 75.488281 269.511719 67.753906 255.933594 C 61.25 244.136719 56.652344 231.402344 53.457031 218.90625 C 52.664062 213.921875 51.179688 208.582031 50.96875 203.261719 C 50.804688 201.140625 50.628906 198.820312 50.476562 196.878906 C 49.792969 188.246094 50.332031 178.800781 51.820312 169.636719 C 52.148438 165.800781 53.339844 162.148438 54.140625 158.40625 C 54.890625 154.640625 56.074219 150.996094 57.441406 147.378906 C 60.8125 136.839844 66.359375 127.03125 72.40625 117.820312 C 79.597656 108.117188 87.621094 99.136719 96.949219 91.566406 C 101.148438 88.109375 105.6875 85.03125 110.175781 81.914062 C 121.390625 74.558594 133.273438 69.875 145.550781 66.234375 C 148.679688 65.539062 151.75 64.855469 154.738281 64.191406 C 168.507812 61.828125 183.140625 61.101562 197.761719 62.636719 C 199.894531 62.964844 202.105469 63.300781 204.191406 63.621094 L 209.796875 64.375 C 211.648438 64.753906 213.472656 65.261719 215.3125 65.703125 C 218.972656 66.667969 222.738281 67.363281 226.269531 68.851562 C 228.828125 69.789062 231.300781 70.386719 231.441406 70.152344 C 231.589844 69.898438 229.820312 68.957031 227.507812 68.007812 C 223.625 66.199219 219.320312 65.304688 215.058594 64.191406 C 212.984375 63.730469 210.960938 62.898438 208.875 62.636719 C 207.007812 62.304688 206.078125 61.753906 207.570312 61.851562 C 209.265625 61.941406 211.121094 62.097656 212.980469 62.542969 C 213.886719 62.722656 215.125 63.019531 216.132812 63.296875 C 218.699219 63.988281 221.246094 64.671875 223.78125 65.351562 L 231.160156 68.007812 C 236.167969 69.523438 240.746094 72.003906 245.519531 74.113281 C 249.953125 76.167969 254.121094 79.140625 258.425781 81.636719 L 269.03125 89.648438 C 272.714844 93.125 276.425781 96.261719 279.550781 99.816406 C 281.566406 102.175781 283.640625 104.605469 285.746094 107.074219 C 287.871094 109.519531 289.625 112.332031 291.625 114.957031 C 294.035156 117.992188 295.960938 121.386719 298 124.484375 C 301.253906 128.964844 303.308594 133.777344 305.382812 138.648438 C 307.21875 142.574219 308.277344 146.410156 310.09375 150.25 C 311.472656 153.070312 312.324219 156.195312 313.292969 159.335938 C 314.175781 162.496094 315.445312 165.625 315.925781 168.875 C 316.261719 170.546875 316.542969 173.253906 316.519531 174.507812 " fill-opacity="1" fill-rule="nonzero"/></g><path fill="#d9d9d9" d="M 252.261719 61.277344 C 257.695312 64.128906 262.230469 67.503906 266.113281 70.226562 C 269.429688 73.09375 273.703125 76.34375 278.21875 79.78125 C 281.113281 82.316406 283.472656 84.542969 285.496094 86.738281 C 287.359375 88.617188 289.113281 90.898438 291.109375 93.359375 C 294.542969 97.535156 295.953125 99.667969 296.175781 100.789062 C 296.230469 101.117188 296.792969 102.132812 297.40625 103.148438 C 297.703125 103.636719 298.675781 104.886719 299.339844 105.753906 C 299.621094 106.121094 300.054688 106.597656 300.160156 106.667969 C 301.253906 107.5 303.578125 109.460938 306.625 114.699219 C 309.429688 119.398438 312.347656 123.835938 314.246094 128.660156 C 315.75 132.335938 317.644531 135.78125 318.726562 139.625 C 319.800781 142.847656 320.882812 146.097656 321.984375 149.402344 C 322.507812 151.011719 322.882812 152.871094 323.371094 154.535156 C 323.625 155.472656 324.027344 156.675781 324.195312 156.984375 C 324.355469 157.292969 324.449219 156.957031 324.324219 156.304688 C 323.820312 153.910156 323.476562 151.292969 322.652344 148.667969 C 320.804688 143.429688 319.445312 137.726562 317.03125 132.683594 C 314.738281 127.265625 312.414062 121.871094 309.375 116.832031 C 306.703125 111.570312 303.304688 106.769531 299.898438 101.898438 C 298.082031 99.03125 295.582031 96.40625 293.308594 93.714844 C 291.566406 91.738281 289.914062 89.671875 288.089844 87.769531 L 282.359375 82.265625 C 279.847656 79.75 277.191406 77.386719 274.320312 75.269531 C 271.488281 73.117188 268.785156 70.757812 265.820312 68.777344 L 265.679688 68.75 C 260.507812 65.609375 255.589844 62.003906 250.027344 59.5 C 248.425781 58.722656 246.773438 57.917969 245.140625 57.128906 C 244.722656 56.925781 243.902344 56.601562 243.921875 56.636719 C 243.984375 56.78125 244.011719 56.976562 244.582031 57.28125 C 247.046875 58.566406 249.628906 59.90625 252.261719 61.277344 " fill-opacity="1" fill-rule="nonzero"/><g clip-path="url(#c7d4e306c6)"><path fill="#d9d9d9" d="M 324.144531 220.074219 C 323.132812 224.839844 321.449219 229.46875 320.132812 234.25 C 319.773438 235.773438 319.027344 237.539062 318.476562 239.183594 C 317.519531 241.847656 316.910156 244.3125 317.140625 244.527344 C 317.375 244.75 318.382812 242.921875 319.332031 240.503906 C 319.730469 239.445312 320.148438 238.324219 320.5625 237.230469 C 320.746094 236.671875 320.988281 236.121094 321.113281 235.550781 C 322.265625 231.226562 322.917969 229.828125 322.761719 231.921875 C 322.574219 233.671875 322.464844 235.96875 321.535156 238.800781 C 320.285156 243.113281 319.378906 246.671875 318.910156 249.285156 C 318.546875 251.332031 318.296875 252.449219 319.402344 251.171875 C 319.8125 250.734375 320.46875 249.195312 321.039062 247.824219 C 321.585938 246.457031 322.261719 244.433594 322.652344 243.113281 C 323.414062 240.550781 323.550781 239.375 323.4375 238.828125 C 323.269531 238.171875 323.347656 237.425781 323.832031 234.398438 C 325.203125 226.171875 325.316406 223.15625 325.039062 218.226562 C 325.019531 217.183594 324.488281 218.304688 324.144531 220.074219 " fill-opacity="1" fill-rule="nonzero"/></g><path fill="#d9d9d9" d="M 304.132812 258.757812 C 302.402344 261.988281 301.871094 263.59375 300.792969 265.941406 C 299.855469 267.820312 298.753906 270.214844 296.933594 272.226562 C 296.109375 273.25 295.453125 274.0625 294.773438 274.90625 C 294.46875 275.3125 294.046875 275.878906 293.800781 276.207031 C 293.296875 276.96875 292.554688 278.066406 292.503906 278.277344 C 292.054688 280.035156 295.398438 277.148438 299.230469 272.390625 C 300.050781 271.5 301.035156 269.449219 301.496094 268.582031 C 301.964844 267.59375 301.925781 267.285156 302.054688 266.761719 C 302.28125 265.820312 303.039062 264.179688 304.460938 261.648438 C 305.875 259.375 306.832031 256.804688 307.875 254.460938 C 308.238281 253.617188 308.515625 252.773438 308.566406 252.4375 C 308.777344 251.082031 308.273438 251.226562 306.902344 253.261719 C 306.273438 254.171875 304.84375 257.128906 304.132812 258.757812 " fill-opacity="1" fill-rule="nonzero"/><path fill="#d9d9d9" d="M 280.914062 291.292969 C 275.8125 296.242188 273.277344 299.332031 272.171875 301.191406 C 272.082031 301.375 273.203125 300.65625 273.519531 300.335938 C 276.402344 297.628906 279.242188 294.960938 282.128906 292.253906 C 285.050781 289.070312 285.679688 287.859375 286.015625 287 C 286.007812 286.828125 286.039062 286.625 285.980469 286.515625 C 285.769531 286.125 283.371094 288.542969 280.914062 291.292969 " fill-opacity="1" fill-rule="nonzero"/><path fill="#d9d9d9" d="M 321.757812 219.691406 C 321.644531 219.34375 321.539062 218.84375 321.335938 219.167969 C 320.6875 220.375 319.480469 223.320312 317.980469 227.523438 C 317.734375 228.230469 317.324219 229.6875 317.148438 230.507812 C 316.890625 231.90625 316.683594 233.050781 316.503906 234.039062 C 316.621094 234.222656 316.636719 234.640625 316.796875 234.433594 C 317.761719 233.183594 319.074219 230.140625 320.75 225.179688 C 321.351562 223.59375 321.992188 220.167969 321.757812 219.691406 " fill-opacity="1" fill-rule="nonzero"/><path fill="#d9d9d9" d="M 323.445312 204.1875 C 323.53125 202.113281 323.671875 198.6875 323.816406 195.273438 C 323.875 193.824219 323.652344 192.773438 323.488281 193.488281 C 322.789062 196.519531 322.300781 201.636719 321.847656 207.148438 C 321.34375 210.234375 321.113281 213.949219 321.566406 213.363281 C 321.9375 212.648438 323.265625 209.4375 323.445312 204.1875 " fill-opacity="1" fill-rule="nonzero"/><path fill="#d9d9d9" d="M 298.570312 266.921875 C 298.746094 266.515625 298.496094 266.585938 298.171875 267.023438 C 297.472656 267.90625 296.714844 269.265625 295.574219 270.511719 C 294.101562 272.507812 292.503906 274.667969 290.953125 276.769531 C 290.46875 277.441406 289.960938 278.320312 289.871094 278.589844 C 289.78125 278.863281 290.039062 278.753906 290.441406 278.339844 C 292.828125 275.671875 297.460938 270.175781 298.570312 266.921875 " fill-opacity="1" fill-rule="nonzero"/><path fill="#d9d9d9" d="M 82.242188 82.332031 C 84.953125 80.023438 87.515625 77.496094 90.273438 75.394531 C 90.59375 75.125 90.800781 74.875 90.75 74.855469 C 90.691406 74.835938 90.324219 75.023438 89.960938 75.277344 C 85.984375 77.921875 82.746094 81.515625 79.214844 84.683594 C 78.902344 84.980469 78.71875 85.242188 78.476562 85.511719 C 78.84375 85.222656 79.171875 84.964844 79.589844 84.632812 C 80.449219 83.890625 81.355469 83.101562 82.242188 82.332031 " fill-opacity="1" fill-rule="nonzero"/><path fill="#d9d9d9" d="M 310.4375 137.601562 C 310.445312 137.71875 310.667969 138.253906 310.882812 138.839844 C 311.480469 140.082031 311.960938 141.636719 312.554688 143.105469 C 312.703125 143.484375 312.9375 143.949219 313.019531 144.039062 C 313.246094 144.292969 313.101562 143.625 312.628906 142.351562 C 312.046875 140.863281 311.554688 139.339844 310.773438 137.984375 C 310.644531 137.726562 310.429688 137.492188 310.4375 137.601562 " fill-opacity="1" fill-rule="nonzero"/><path fill="#d9d9d9" d="M 305.402344 273.960938 C 305.226562 274.46875 305.46875 274.273438 306.097656 273.257812 C 306.429688 272.722656 306.769531 271.984375 307 271.476562 C 307.070312 271.328125 306.832031 271.5625 306.636719 271.832031 C 306.074219 272.601562 305.636719 273.363281 305.402344 273.960938 " fill-opacity="1" fill-rule="nonzero"/><path fill="#d9d9d9" d="M 317.746094 164.902344 C 317.703125 164.570312 317.707031 164.320312 317.617188 163.894531 C 317.417969 162.960938 317.1875 161.824219 316.945312 160.976562 C 316.617188 159.832031 316.4375 159.644531 316.53125 160.4375 C 316.675781 161.625 317.113281 163.476562 317.503906 164.5625 C 317.609375 164.855469 317.667969 164.796875 317.746094 164.902344 " fill-opacity="1" fill-rule="nonzero"/><path fill="#d9d9d9" d="M 318.222656 207.40625 C 318.167969 206.910156 317.992188 207.464844 317.785156 208.832031 C 317.722656 209.222656 317.730469 209.617188 317.707031 210.011719 C 317.785156 210.425781 317.941406 209.941406 318.152344 208.566406 C 318.210938 208.171875 318.242188 207.574219 318.222656 207.40625 " fill-opacity="1" fill-rule="nonzero"/><g clip-path="url(#1b97cfdd11)"><path fill="#d9d9d9" d="M 201.351562 50.84375 C 201.820312 50.785156 201.242188 50.609375 199.894531 50.386719 C 199.433594 50.3125 198.582031 50.214844 198.46875 50.230469 C 198.03125 50.289062 198.613281 50.460938 199.917969 50.691406 C 200.414062 50.742188 201.226562 50.855469 201.351562 50.84375 " fill-opacity="1" fill-rule="nonzero"/></g><path fill="#d9d9d9" d="M 58.417969 108.824219 L 58.089844 109.082031 C 57.621094 109.894531 57.148438 110.714844 56.699219 111.5 C 56.671875 111.550781 56.898438 111.34375 57.007812 111.253906 L 58.417969 108.824219 " fill-opacity="1" fill-rule="nonzero"/><path fill="#d9d9d9" d="M 307 264.980469 C 306.964844 264.953125 306.726562 265.199219 306.519531 265.515625 C 305.8125 266.570312 305.464844 267.25 305.515625 267.421875 C 305.679688 267.25 305.808594 267.179688 306.011719 266.871094 C 306.722656 265.808594 307.109375 265.066406 307 264.980469 " fill-opacity="1" fill-rule="nonzero"/><path fill="#d9d9d9" d="M 313.566406 192.328125 C 313.542969 192.058594 313.464844 191.664062 313.4375 191.710938 C 313.410156 191.753906 313.417969 192.273438 313.410156 192.585938 L 313.550781 193.257812 C 313.554688 192.945312 313.5625 192.597656 313.566406 192.328125 " fill-opacity="1" fill-rule="nonzero"/><path fill="#d9d9d9" d="M 314.410156 135.109375 C 314.542969 135.375 314.695312 135.554688 314.839844 135.773438 C 314.703125 135.4375 314.550781 135.0625 314.433594 134.765625 C 314.296875 134.488281 314.144531 134.3125 314 134.09375 C 314.136719 134.4375 314.289062 134.804688 314.410156 135.109375 " fill-opacity="1" fill-rule="nonzero"/><path fill="#d9d9d9" d="M 309.277344 172.546875 C 309.316406 172.933594 309.367188 173.382812 309.394531 173.683594 C 309.460938 174.042969 309.589844 174.503906 309.632812 174.519531 C 309.792969 174.589844 309.730469 173.933594 309.472656 172.90625 C 309.40625 172.628906 309.34375 172.660156 309.277344 172.546875 " fill-opacity="1" fill-rule="nonzero"/><path fill="#d9d9d9" d="M 293.792969 269.34375 L 294.382812 268.742188 L 294.539062 268.3125 Z M 293.792969 269.34375 " fill-opacity="1" fill-rule="nonzero"/><path fill="#d9d9d9" d="M 302.765625 112.539062 L 302.027344 111.507812 L 302.210938 111.929688 Z M 302.765625 112.539062 " fill-opacity="1" fill-rule="nonzero"/><path fill="#d9d9d9" d="M 117 303.507812 L 116.378906 303.203125 L 117.324219 303.800781 Z M 117 303.507812 " fill-opacity="1" fill-rule="nonzero"/><g fill="#d9d9d9" fill-opacity="1"><g transform="translate(115.464841, 215.766372)"><g><path d="M 14.851562 -40.996094 C 14.707031 -40.898438 14.707031 -40.945312 14.851562 -41.1875 C 14.945312 -41.378906 14.945312 -41.570312 14.945312 -41.621094 C 14.851562 -41.667969 14.273438 -40.851562 14.273438 -40.707031 C 14.273438 -40.515625 14.898438 -40.707031 14.945312 -40.898438 C 14.996094 -41.042969 14.945312 -41.042969 14.851562 -40.996094 Z M 13.167969 -38.496094 C 13.214844 -38.6875 13.214844 -38.6875 13.023438 -38.542969 C 12.878906 -38.398438 12.542969 -37.199219 12.542969 -36.765625 C 12.542969 -36.574219 12.6875 -36.765625 12.976562 -37.4375 C 13.167969 -37.824219 13.265625 -38.160156 13.214844 -38.207031 C 13.121094 -38.207031 13.121094 -38.351562 13.167969 -38.496094 Z M 68.726562 -61.371094 C 68.390625 -61.566406 68.339844 -61.851562 68.679688 -61.851562 C 68.917969 -61.851562 68.917969 -62.238281 68.628906 -62.332031 C 68.535156 -62.382812 68.4375 -62.527344 68.484375 -62.671875 C 68.628906 -63.054688 68.246094 -63.34375 67.378906 -63.4375 C 66.707031 -63.488281 66.46875 -63.488281 66.371094 -63.34375 C 66.324219 -63.199219 66.273438 -63.152344 66.273438 -63.296875 C 66.273438 -63.390625 66.179688 -63.488281 66.082031 -63.488281 C 65.9375 -63.488281 65.84375 -63.4375 65.84375 -63.390625 C 65.84375 -63.296875 65.554688 -63.296875 65.21875 -63.296875 C 64.640625 -63.390625 61.804688 -63.199219 58.632812 -62.863281 C 57.769531 -62.8125 56.375 -62.671875 55.558594 -62.671875 C 54.355469 -62.574219 51.136719 -62.285156 47.773438 -61.949219 C 47.195312 -61.851562 45.511719 -61.660156 45.128906 -61.613281 C 44.9375 -61.566406 44.214844 -61.46875 43.496094 -61.371094 C 42.773438 -61.324219 41.523438 -61.132812 40.707031 -61.035156 C 39.839844 -60.890625 38.640625 -60.699219 38.015625 -60.605469 C 37.390625 -60.507812 36.574219 -60.410156 36.238281 -60.316406 C 35.902344 -60.265625 35.226562 -60.125 34.699219 -60.027344 C 33.160156 -59.785156 27.203125 -58.441406 25.421875 -57.960938 C 24.511719 -57.671875 23.644531 -57.480469 23.5 -57.433594 C 22.972656 -57.335938 19.417969 -56.328125 17.972656 -55.847656 C 17.15625 -55.605469 16.246094 -55.316406 15.859375 -55.171875 C 15.476562 -55.078125 14.371094 -54.691406 13.457031 -54.355469 C 12.542969 -54.019531 11.679688 -53.777344 11.582031 -53.777344 C 11.390625 -53.777344 3.21875 -50.75 1.730469 -50.175781 C 0.578125 -49.644531 0.527344 -49.644531 0.480469 -49.117188 C 0.480469 -48.828125 0.480469 -48.253906 0.480469 -47.820312 C 0.527344 -47.195312 0.578125 -47.050781 0.769531 -47.050781 C 0.914062 -47.097656 1.007812 -46.90625 1.105469 -46.472656 C 1.296875 -45.703125 1.730469 -45.417969 2.210938 -45.703125 C 2.355469 -45.800781 2.546875 -45.847656 2.644531 -45.800781 C 2.738281 -45.800781 2.980469 -45.898438 4.132812 -46.425781 C 5.910156 -47.242188 8.746094 -48.539062 8.84375 -48.539062 C 8.890625 -48.539062 9.277344 -48.734375 9.757812 -48.925781 C 10.1875 -49.117188 11.054688 -49.5 11.679688 -49.789062 C 12.351562 -50.03125 12.929688 -50.269531 12.976562 -50.320312 C 13.167969 -50.464844 17.109375 -51.855469 18.597656 -52.289062 C 19.175781 -52.433594 19.753906 -52.671875 19.800781 -52.722656 C 19.898438 -52.769531 20.136719 -52.867188 20.328125 -52.914062 C 20.761719 -52.960938 20.761719 -53.011719 19.992188 -52.050781 C 19.464844 -51.425781 16.867188 -47.773438 15.476562 -45.65625 C 13.839844 -43.15625 12.785156 -41.378906 12.160156 -40.179688 C 11.96875 -39.699219 11.679688 -39.265625 11.582031 -39.21875 C 11.488281 -39.121094 11.4375 -38.976562 11.4375 -38.878906 C 11.4375 -38.738281 11.34375 -38.640625 11.292969 -38.640625 C 11.246094 -38.640625 11.054688 -38.351562 10.863281 -37.96875 C 10.71875 -37.535156 10.1875 -36.476562 9.707031 -35.613281 C 8.601562 -33.449219 7.546875 -31.144531 7.546875 -31 C 7.59375 -30.949219 7.351562 -30.375 7.015625 -29.75 C 6.679688 -29.078125 6.199219 -28.066406 5.960938 -27.539062 L 5.480469 -26.433594 L 4.132812 -25.761719 C 2.835938 -25.136719 2.738281 -25.039062 2.738281 -24.605469 C 2.691406 -24.269531 2.738281 -24.03125 2.980469 -23.835938 C 3.125 -23.695312 3.21875 -23.453125 3.21875 -23.355469 C 3.21875 -23.214844 3.414062 -22.972656 3.554688 -22.730469 C 3.988281 -22.300781 3.988281 -22.25 3.605469 -20.425781 C 2.738281 -16.675781 2.59375 -11.4375 3.316406 -7.976562 C 3.652344 -6.535156 4.179688 -4.757812 4.46875 -4.46875 C 4.566406 -4.324219 4.757812 -3.988281 4.855469 -3.75 C 4.949219 -3.507812 5.285156 -2.882812 5.621094 -2.308594 C 6.105469 -1.488281 6.441406 -1.105469 7.210938 -0.578125 C 7.738281 -0.191406 8.410156 0.289062 8.652344 0.480469 C 9.132812 0.863281 10.382812 1.25 11.054688 1.296875 C 11.292969 1.296875 11.628906 1.34375 11.773438 1.441406 C 12.253906 1.632812 12.015625 1.683594 15.859375 0.863281 C 17.109375 0.625 18.214844 0.191406 18.839844 -0.191406 C 19.078125 -0.382812 19.65625 -0.769531 20.136719 -1.058594 C 20.570312 -1.34375 21.003906 -1.632812 21.003906 -1.730469 C 21.003906 -1.828125 21.050781 -1.875 21.097656 -1.875 C 21.339844 -1.875 22.683594 -3.027344 23.214844 -3.652344 C 23.835938 -4.375 23.550781 -4.375 22.78125 -3.652344 C 22.011719 -2.933594 21.195312 -2.355469 21.242188 -2.59375 C 21.289062 -2.644531 21.914062 -3.269531 22.683594 -3.988281 C 23.40625 -4.660156 24.175781 -5.382812 24.367188 -5.527344 C 24.558594 -5.71875 25.136719 -6.34375 25.710938 -6.921875 C 26.242188 -7.496094 26.769531 -7.976562 26.816406 -7.976562 C 27.007812 -7.976562 29.699219 -11.101562 29.699219 -11.34375 C 29.699219 -11.488281 30.132812 -12.109375 30.710938 -12.785156 C 32.34375 -14.707031 34.746094 -18.117188 34.746094 -18.453125 C 34.746094 -18.792969 34.460938 -18.597656 34.074219 -18.070312 C 33.59375 -17.253906 33.015625 -16.53125 32.921875 -16.53125 C 32.777344 -16.53125 33.835938 -18.214844 34.121094 -18.453125 C 34.265625 -18.550781 34.316406 -18.742188 34.316406 -18.839844 C 34.316406 -18.984375 35.082031 -19.703125 35.324219 -19.753906 C 35.371094 -19.753906 35.515625 -19.800781 35.5625 -19.800781 C 35.660156 -19.800781 35.902344 -20.183594 36.1875 -20.664062 C 36.429688 -21.097656 36.863281 -21.722656 37.054688 -21.964844 C 38.304688 -23.453125 41.285156 -28.066406 41.285156 -28.453125 C 41.285156 -28.738281 41.042969 -28.546875 40.609375 -27.875 C 40.371094 -27.539062 40.226562 -27.296875 40.226562 -27.347656 C 40.226562 -27.441406 40.464844 -27.828125 40.707031 -28.257812 C 41.332031 -29.171875 41.476562 -29.605469 41.234375 -29.84375 C 41.089844 -29.941406 41.042969 -29.988281 41.042969 -29.894531 C 41.042969 -29.84375 40.898438 -29.558594 40.707031 -29.316406 C 40.464844 -29.078125 39.890625 -28.308594 39.410156 -27.585938 C 38.929688 -26.914062 38.351562 -26.144531 38.113281 -25.953125 C 37.917969 -25.710938 37.246094 -24.847656 36.621094 -23.980469 C 35.996094 -23.164062 34.941406 -21.722656 34.265625 -20.859375 C 33.59375 -19.992188 32.585938 -18.695312 32.007812 -17.925781 C 31.480469 -17.207031 29.414062 -14.851562 27.441406 -12.6875 C 25.472656 -10.574219 23.835938 -8.746094 23.835938 -8.652344 C 23.835938 -8.507812 23.742188 -8.457031 23.644531 -8.457031 C 23.550781 -8.457031 23.214844 -8.171875 22.828125 -7.785156 C 22.492188 -7.402344 22.109375 -7.113281 22.058594 -7.113281 C 22.011719 -7.113281 21.769531 -6.871094 21.53125 -6.585938 C 21.242188 -6.296875 20.808594 -5.910156 20.570312 -5.71875 C 20.28125 -5.527344 19.609375 -5.046875 18.984375 -4.660156 C 16.726562 -3.074219 15.957031 -2.644531 13.746094 -1.96875 C 12.253906 -1.539062 9.851562 -1.539062 8.507812 -2.019531 L 7.546875 -2.402344 L 7.015625 -3.507812 C 6.246094 -5.285156 6.054688 -6.632812 6.054688 -10.382812 C 6.054688 -13.9375 6.296875 -16.148438 7.066406 -19.128906 C 7.546875 -21.003906 8.507812 -23.742188 8.796875 -24.125 C 9.035156 -24.460938 12.160156 -25.808594 15.570312 -27.105469 C 16.582031 -27.492188 17.398438 -27.828125 17.492188 -27.875 C 17.589844 -27.972656 17.78125 -28.066406 17.972656 -28.113281 C 18.695312 -28.355469 19.945312 -29.027344 20.328125 -29.363281 C 20.523438 -29.558594 20.808594 -30.039062 20.90625 -30.375 C 21.097656 -30.949219 21.097656 -31.046875 20.90625 -31.480469 C 20.808594 -31.71875 20.617188 -31.910156 20.570312 -31.910156 C 20.472656 -31.910156 20.425781 -32.054688 20.425781 -32.25 C 20.425781 -32.585938 20.089844 -32.585938 19.609375 -32.25 C 19.03125 -31.769531 18.070312 -31.335938 16.339844 -30.804688 C 15.476562 -30.519531 14.660156 -30.230469 14.515625 -30.132812 C 14.371094 -30.039062 14.082031 -29.941406 13.890625 -29.894531 C 13.695312 -29.84375 12.929688 -29.558594 12.109375 -29.269531 C 11.34375 -28.980469 10.71875 -28.789062 10.667969 -28.789062 C 10.621094 -28.835938 11.003906 -29.605469 11.488281 -30.519531 C 11.96875 -31.429688 12.589844 -32.679688 12.929688 -33.355469 C 13.265625 -34.027344 13.648438 -34.796875 13.839844 -35.132812 C 14.035156 -35.421875 14.128906 -35.707031 14.128906 -35.707031 C 14.128906 -35.757812 14.417969 -36.238281 14.753906 -36.765625 C 15.089844 -37.34375 15.378906 -37.871094 15.332031 -38.015625 C 15.28125 -38.113281 15.332031 -38.207031 15.425781 -38.207031 C 15.523438 -38.207031 15.765625 -38.542969 16.003906 -38.929688 C 16.195312 -39.3125 16.773438 -40.226562 17.300781 -40.996094 C 17.78125 -41.714844 18.695312 -43.109375 19.273438 -44.023438 C 19.847656 -44.984375 20.761719 -46.28125 21.242188 -46.953125 C 21.722656 -47.628906 22.394531 -48.539062 22.730469 -49.019531 C 23.070312 -49.453125 24.03125 -50.65625 24.941406 -51.617188 C 27.058594 -53.875 27.25 -54.117188 27.25 -54.257812 C 27.25 -54.355469 28.691406 -55.125 28.933594 -55.125 C 29.027344 -55.125 29.605469 -55.269531 30.183594 -55.414062 C 30.757812 -55.605469 31.429688 -55.75 31.574219 -55.703125 C 31.816406 -55.703125 31.960938 -55.847656 32.054688 -56.132812 C 32.152344 -56.421875 32.25 -56.613281 32.34375 -56.613281 C 32.390625 -56.613281 32.390625 -56.46875 32.296875 -56.277344 C 32.152344 -55.988281 32.152344 -55.988281 32.777344 -56.085938 C 33.160156 -56.132812 34.171875 -56.328125 35.035156 -56.46875 C 35.902344 -56.664062 36.8125 -56.808594 37.054688 -56.855469 C 37.4375 -56.855469 38.449219 -57.046875 38.6875 -57.144531 C 38.738281 -57.144531 39.265625 -57.191406 39.890625 -57.289062 C 40.464844 -57.335938 41.042969 -57.433594 41.089844 -57.480469 C 41.1875 -57.574219 41.621094 -57.625 42.101562 -57.625 C 43.015625 -57.671875 43.496094 -57.816406 43.496094 -58.105469 C 43.496094 -58.199219 43.351562 -58.25 43.15625 -58.199219 C 42.582031 -58.054688 41.234375 -57.914062 41.332031 -58.007812 C 41.378906 -58.054688 42.050781 -58.199219 42.871094 -58.296875 C 43.6875 -58.441406 44.457031 -58.535156 44.503906 -58.535156 C 44.9375 -58.679688 44.9375 -58.488281 44.503906 -58.296875 C 44.214844 -58.199219 43.925781 -58.152344 43.878906 -58.199219 C 43.78125 -58.25 43.734375 -58.152344 43.734375 -58.007812 C 43.734375 -57.816406 43.878906 -57.769531 44.550781 -57.863281 C 44.984375 -57.960938 45.367188 -58.054688 45.417969 -58.152344 C 45.464844 -58.199219 45.5625 -58.25 45.65625 -58.199219 C 45.753906 -58.152344 45.800781 -58.152344 45.800781 -58.25 C 45.800781 -58.296875 45.753906 -58.394531 45.65625 -58.394531 C 45.609375 -58.394531 45.511719 -58.488281 45.511719 -58.535156 C 45.511719 -58.632812 45.65625 -58.679688 45.800781 -58.679688 C 45.945312 -58.679688 46.089844 -58.585938 46.089844 -58.488281 C 46.089844 -58.34375 46.136719 -58.25 46.234375 -58.25 C 46.28125 -58.25 46.328125 -58.34375 46.328125 -58.488281 C 46.28125 -58.730469 46.28125 -58.730469 47.628906 -58.921875 C 48.636719 -59.019531 48.828125 -59.113281 48.636719 -59.402344 C 48.539062 -59.546875 48.539062 -59.59375 48.78125 -59.59375 C 49.164062 -59.640625 49.359375 -59.59375 49.597656 -59.355469 C 49.839844 -59.066406 49.789062 -59.019531 49.5 -59.019531 C 49.214844 -59.019531 49.117188 -58.777344 49.359375 -58.632812 C 49.550781 -58.488281 50.03125 -58.679688 50.03125 -58.921875 C 50.03125 -59.257812 50.269531 -59.304688 51.570312 -59.355469 L 52.816406 -59.402344 L 51.855469 -59.257812 C 51.28125 -59.210938 50.847656 -59.066406 50.847656 -59.019531 C 50.847656 -58.824219 54.066406 -59.019531 54.355469 -59.210938 C 54.453125 -59.257812 54.644531 -59.257812 54.789062 -59.210938 C 55.078125 -59.113281 55.414062 -59.355469 55.316406 -59.59375 C 55.222656 -59.691406 55.316406 -59.738281 55.558594 -59.738281 C 55.894531 -59.738281 55.894531 -59.738281 55.75 -59.5 C 55.558594 -59.257812 55.703125 -59.257812 57.238281 -59.355469 C 58.199219 -59.402344 60.21875 -59.546875 61.757812 -59.640625 C 63.296875 -59.785156 65.410156 -59.929688 66.417969 -59.980469 C 67.476562 -60.027344 68.339844 -60.125 68.390625 -60.21875 C 68.4375 -60.316406 68.535156 -60.316406 68.582031 -60.265625 C 68.679688 -60.21875 68.820312 -60.265625 68.917969 -60.410156 C 69.207031 -60.699219 69.0625 -61.179688 68.726562 -61.371094 Z M 37.726562 -23.644531 C 37.824219 -23.695312 37.871094 -23.644531 37.871094 -23.550781 C 37.871094 -23.5 37.824219 -23.40625 37.726562 -23.40625 C 37.582031 -23.40625 37.582031 -23.5 37.726562 -23.644531 Z M 36.046875 -21.433594 C 36.09375 -21.386719 36.09375 -21.242188 36.09375 -21.144531 C 36.046875 -21.003906 35.996094 -21.050781 35.996094 -21.195312 C 35.996094 -21.386719 35.996094 -21.484375 36.046875 -21.433594 Z M 35.035156 -21.386719 C 35.132812 -21.53125 35.226562 -21.628906 35.277344 -21.628906 C 35.324219 -21.628906 35.226562 -21.53125 35.179688 -21.386719 C 35.082031 -21.242188 34.941406 -21.144531 34.941406 -21.144531 C 34.890625 -21.144531 34.941406 -21.242188 35.035156 -21.386719 Z M 33.882812 -19.898438 C 34.074219 -20.136719 34.363281 -20.523438 34.554688 -20.714844 C 34.84375 -20.953125 34.746094 -20.859375 34.410156 -20.425781 C 33.691406 -19.511719 33.546875 -19.367188 33.882812 -19.898438 Z M 33.113281 -17.832031 C 33.402344 -18.023438 33.402344 -18.023438 33.257812 -17.734375 C 33.066406 -17.351562 32.824219 -17.207031 32.824219 -17.445312 C 32.824219 -17.589844 32.96875 -17.734375 33.113281 -17.832031 Z M 7.402344 -23.164062 C 6.632812 -21.386719 5.816406 -18.3125 5.574219 -16.246094 C 5.382812 -15.042969 5.238281 -13.648438 5.140625 -13.121094 C 5.046875 -12.640625 5 -11.726562 5 -11.101562 C 5 -9.707031 5.382812 -5.671875 5.574219 -5.09375 C 5.621094 -4.855469 5.671875 -4.613281 5.621094 -4.613281 C 5.574219 -4.519531 5.046875 -6.105469 4.757812 -7.304688 C 4.46875 -8.457031 4.230469 -9.996094 4.46875 -9.371094 C 4.566406 -8.988281 4.566406 -8.988281 4.566406 -9.46875 C 4.613281 -9.804688 4.566406 -9.949219 4.421875 -9.898438 C 4.324219 -9.898438 4.230469 -10.140625 4.230469 -10.71875 C 4.179688 -11.34375 4.230469 -11.582031 4.324219 -11.535156 C 4.421875 -11.488281 4.46875 -11.535156 4.46875 -11.679688 C 4.46875 -11.773438 4.421875 -11.871094 4.324219 -11.824219 C 4.132812 -11.679688 4.085938 -12.878906 4.179688 -14.609375 C 4.230469 -15.8125 4.324219 -16.292969 4.46875 -16.386719 C 4.613281 -16.484375 4.613281 -16.582031 4.519531 -16.628906 C 4.421875 -16.726562 4.421875 -17.011719 4.519531 -17.78125 C 4.613281 -18.597656 4.660156 -18.792969 4.757812 -18.550781 C 4.855469 -18.3125 4.855469 -18.359375 4.804688 -18.695312 C 4.710938 -19.320312 4.855469 -19.945312 5.09375 -19.945312 C 5.285156 -19.945312 5.285156 -20.089844 5.238281 -20.472656 C 5.140625 -21.097656 5.238281 -21.769531 5.429688 -21.484375 C 5.527344 -21.242188 6.105469 -22.15625 6.105469 -22.589844 C 6.105469 -22.78125 7.210938 -23.695312 7.496094 -23.695312 C 7.546875 -23.695312 7.496094 -23.453125 7.402344 -23.164062 Z M 17.445312 -45.898438 C 17.492188 -45.992188 17.351562 -45.65625 17.0625 -45.175781 C 16.582031 -44.359375 16.484375 -44.214844 16.484375 -44.40625 C 16.484375 -44.550781 17.253906 -45.800781 17.445312 -45.898438 Z M 15.765625 -43.351562 C 15.957031 -43.832031 16.339844 -44.3125 16.339844 -44.117188 C 16.339844 -44.023438 16.195312 -43.78125 16.003906 -43.496094 C 15.8125 -43.300781 15.714844 -43.207031 15.765625 -43.351562 Z M 8.027344 -28.738281 C 7.882812 -28.59375 7.882812 -28.644531 7.976562 -28.835938 C 8.027344 -28.980469 8.074219 -29.078125 8.121094 -29.027344 C 8.171875 -28.980469 8.121094 -28.835938 8.027344 -28.738281 Z M 17.878906 -45.082031 C 17.109375 -43.976562 14.800781 -39.984375 14.753906 -39.648438 C 14.707031 -39.457031 14.609375 -39.265625 14.5625 -39.265625 C 14.515625 -39.265625 14.175781 -38.785156 13.890625 -38.207031 C 13.457031 -37.390625 13.3125 -37.101562 13.457031 -37.007812 C 13.648438 -36.910156 12.878906 -35.179688 10.910156 -31.335938 C 10.382812 -30.277344 9.851562 -29.171875 9.660156 -28.835938 C 9.515625 -28.5 9.226562 -28.164062 9.035156 -28.066406 C 8.84375 -27.972656 8.601562 -27.875 8.457031 -27.875 C 8.21875 -27.875 8.21875 -28.164062 8.507812 -28.308594 C 8.601562 -28.355469 8.699219 -28.453125 8.652344 -28.546875 C 8.601562 -28.644531 8.652344 -28.882812 8.796875 -29.078125 C 8.890625 -29.316406 8.9375 -29.558594 8.9375 -29.699219 C 8.9375 -30.039062 8.601562 -30.085938 8.507812 -29.796875 C 8.457031 -29.652344 8.457031 -29.699219 8.457031 -29.84375 C 8.410156 -29.941406 8.699219 -30.613281 9.035156 -31.238281 C 9.707031 -32.535156 9.851562 -32.679688 9.324219 -31.527344 C 8.988281 -30.804688 8.988281 -30.804688 9.277344 -30.804688 C 9.417969 -30.804688 9.613281 -31 9.660156 -31.191406 C 9.757812 -31.382812 9.851562 -31.671875 9.996094 -31.769531 C 10.09375 -31.910156 10.332031 -32.34375 10.523438 -32.777344 C 12.160156 -35.902344 12.109375 -35.804688 11.773438 -35.804688 C 11.679688 -35.804688 11.4375 -35.613281 11.199219 -35.324219 L 10.863281 -34.84375 L 11.148438 -35.515625 C 11.34375 -35.902344 11.628906 -36.476562 11.824219 -36.765625 C 12.015625 -37.101562 12.253906 -37.488281 12.304688 -37.632812 C 12.351562 -37.726562 12.6875 -38.351562 13.023438 -38.929688 C 13.457031 -39.699219 13.792969 -40.082031 13.9375 -40.082031 C 14.082031 -40.082031 14.226562 -40.226562 14.273438 -40.371094 C 14.320312 -40.609375 14.273438 -40.660156 14.082031 -40.464844 C 13.984375 -40.371094 13.890625 -40.324219 13.890625 -40.371094 C 13.890625 -40.515625 15.378906 -42.871094 15.476562 -42.871094 C 15.523438 -42.871094 15.425781 -42.675781 15.332031 -42.484375 C 15.089844 -42.050781 15.042969 -41.714844 15.234375 -41.859375 C 15.332031 -41.910156 15.378906 -41.910156 15.378906 -41.8125 C 15.378906 -41.714844 15.332031 -41.621094 15.234375 -41.570312 C 15.1875 -41.523438 15.089844 -41.425781 15.089844 -41.285156 C 15.089844 -41.089844 15.425781 -41.523438 16.4375 -43.109375 C 16.867188 -43.78125 17.398438 -44.550781 17.636719 -44.839844 C 17.832031 -45.128906 17.972656 -45.222656 17.878906 -45.082031 Z M 20.714844 -53.492188 C 20.523438 -53.492188 20.425781 -53.539062 20.523438 -53.585938 C 20.617188 -53.585938 20.761719 -53.585938 20.859375 -53.585938 C 20.953125 -53.539062 20.90625 -53.492188 20.714844 -53.492188 Z M 22.109375 -55.605469 C 21.675781 -55.507812 21.242188 -55.414062 21.195312 -55.414062 C 21.003906 -55.414062 21.964844 -55.75 22.636719 -55.941406 C 23.40625 -56.132812 22.972656 -55.847656 22.109375 -55.605469 Z M 25.136719 -57.382812 C 25.039062 -57.238281 23.644531 -56.808594 22.058594 -56.375 C 20.425781 -55.941406 19.078125 -55.558594 19.078125 -55.558594 C 18.839844 -55.605469 19.898438 -55.941406 22.300781 -56.613281 C 23.789062 -57.046875 25.039062 -57.382812 25.136719 -57.433594 C 25.230469 -57.527344 25.230469 -57.480469 25.136719 -57.382812 Z M 28.113281 -57.289062 C 28.210938 -57.238281 28.164062 -57.238281 28.019531 -57.238281 C 27.875 -57.191406 27.777344 -57.238281 27.828125 -57.289062 C 27.875 -57.335938 27.972656 -57.335938 28.113281 -57.289062 Z M 27.492188 -58.054688 C 27.585938 -58.105469 27.730469 -58.105469 27.828125 -58.054688 C 27.921875 -58.007812 27.828125 -57.960938 27.632812 -57.960938 C 27.441406 -57.960938 27.394531 -58.007812 27.492188 -58.054688 Z M 26.625 -57.769531 C 26.527344 -57.671875 26 -57.574219 26 -57.71875 C 26 -57.769531 26.191406 -57.769531 26.386719 -57.816406 C 26.527344 -57.863281 26.671875 -57.863281 26.625 -57.769531 Z M 27.296875 -57.046875 C 26.960938 -56.855469 26.722656 -56.855469 26.960938 -57.046875 C 27.105469 -57.144531 27.296875 -57.191406 27.394531 -57.191406 C 27.539062 -57.191406 27.492188 -57.144531 27.296875 -57.046875 Z M 28.835938 -55.75 C 28.691406 -55.703125 28.453125 -55.558594 28.355469 -55.414062 C 28.308594 -55.316406 28.210938 -55.269531 28.210938 -55.363281 C 28.210938 -55.507812 28.019531 -55.507812 27.777344 -55.460938 C 27.441406 -55.414062 27.394531 -55.414062 27.585938 -55.558594 C 27.730469 -55.605469 28.113281 -55.703125 28.453125 -55.75 C 28.835938 -55.796875 28.980469 -55.796875 28.835938 -55.75 Z M 29.507812 -55.847656 C 29.363281 -55.847656 29.269531 -55.894531 29.316406 -55.941406 C 29.363281 -55.988281 29.507812 -55.988281 29.605469 -55.941406 C 29.699219 -55.894531 29.652344 -55.894531 29.507812 -55.847656 Z M 30.039062 -56.039062 C 29.894531 -55.988281 29.84375 -56.039062 29.894531 -56.085938 C 29.941406 -56.132812 30.039062 -56.132812 30.132812 -56.132812 C 30.230469 -56.039062 30.230469 -56.039062 30.039062 -56.039062 Z M 31.574219 -56.328125 C 31.480469 -56.328125 31.191406 -56.277344 30.855469 -56.183594 C 30.375 -56.132812 30.324219 -56.132812 30.519531 -56.328125 C 30.664062 -56.519531 30.902344 -56.519531 31.144531 -56.519531 C 31.382812 -56.421875 31.527344 -56.519531 31.625 -56.613281 C 31.71875 -56.808594 31.769531 -56.757812 31.769531 -56.566406 C 31.769531 -56.421875 31.671875 -56.328125 31.574219 -56.328125 Z M 30.664062 -57.960938 C 30.855469 -58.105469 31.480469 -58.152344 31.335938 -58.054688 C 31.285156 -58.007812 31.09375 -57.960938 30.855469 -57.914062 C 30.566406 -57.816406 30.519531 -57.816406 30.664062 -57.960938 Z M 32.488281 -58.25 C 32.34375 -58.152344 32.054688 -58.105469 31.863281 -58.105469 C 31.574219 -58.105469 31.574219 -58.152344 31.816406 -58.25 C 31.960938 -58.296875 32.25 -58.394531 32.441406 -58.394531 C 32.730469 -58.394531 32.777344 -58.34375 32.488281 -58.25 Z M 33.496094 -58.535156 C 33.257812 -58.34375 33.066406 -58.34375 33.160156 -58.535156 C 33.210938 -58.632812 33.355469 -58.679688 33.496094 -58.679688 C 33.691406 -58.679688 33.691406 -58.679688 33.496094 -58.535156 Z M 34.554688 -58.679688 C 34.507812 -58.632812 34.316406 -58.535156 34.171875 -58.535156 C 33.882812 -58.585938 33.882812 -58.585938 34.121094 -58.679688 C 34.507812 -58.875 34.652344 -58.875 34.554688 -58.679688 Z M 35.421875 -58.875 C 35.179688 -58.679688 35.035156 -58.679688 35.035156 -58.875 C 35.035156 -58.921875 35.179688 -59.019531 35.324219 -59.019531 C 35.5625 -59.019531 35.613281 -58.96875 35.421875 -58.875 Z M 35.851562 -58.875 C 35.660156 -58.875 35.660156 -58.96875 35.851562 -59.066406 C 35.902344 -59.113281 35.996094 -59.066406 35.996094 -59.019531 C 35.996094 -58.921875 35.902344 -58.875 35.851562 -58.875 Z M 36.527344 -59.019531 C 36.332031 -59.019531 36.238281 -59.066406 36.332031 -59.113281 C 36.429688 -59.160156 36.621094 -59.160156 36.71875 -59.113281 C 36.8125 -59.066406 36.71875 -59.019531 36.527344 -59.019531 Z M 37.488281 -59.160156 C 37.292969 -59.160156 37.199219 -59.210938 37.292969 -59.257812 C 37.390625 -59.304688 37.582031 -59.304688 37.632812 -59.257812 C 37.726562 -59.210938 37.679688 -59.160156 37.488281 -59.160156 Z M 38.496094 -59.304688 C 38.398438 -59.304688 38.304688 -59.355469 38.351562 -59.449219 C 38.398438 -59.546875 38.496094 -59.59375 38.59375 -59.59375 C 38.640625 -59.59375 38.6875 -59.546875 38.6875 -59.449219 C 38.6875 -59.355469 38.59375 -59.304688 38.496094 -59.304688 Z M 35.277344 -59.5 C 35.179688 -59.449219 34.890625 -59.402344 34.601562 -59.355469 C 33.929688 -59.257812 30.566406 -58.535156 29.699219 -58.296875 C 29.316406 -58.199219 28.738281 -58.105469 28.5 -58.105469 C 28.113281 -58.152344 28.113281 -58.152344 28.355469 -58.199219 C 28.546875 -58.25 29.078125 -58.34375 29.558594 -58.488281 C 30.710938 -58.777344 33.738281 -59.402344 34.84375 -59.59375 C 35.277344 -59.691406 36.1875 -59.835938 36.863281 -59.980469 C 39.265625 -60.410156 42.53125 -60.84375 42.628906 -60.746094 C 42.628906 -60.699219 41.910156 -60.554688 40.996094 -60.460938 C 37.054688 -59.835938 35.515625 -59.59375 35.277344 -59.5 Z M 40.804688 -57.816406 C 40.707031 -57.816406 40.660156 -57.863281 40.707031 -57.960938 C 40.707031 -58.007812 40.804688 -58.105469 40.898438 -58.105469 C 40.996094 -58.105469 41.042969 -58.007812 41.042969 -57.960938 C 41.042969 -57.863281 40.945312 -57.816406 40.804688 -57.816406 Z M 41.957031 -59.738281 C 41.476562 -59.691406 40.945312 -59.59375 40.753906 -59.59375 C 40.5625 -59.59375 40.753906 -59.691406 41.140625 -59.738281 C 41.570312 -59.835938 41.957031 -59.980469 41.957031 -60.027344 C 42.003906 -60.21875 42.628906 -60.21875 42.726562 -60.074219 C 42.773438 -59.980469 42.390625 -59.835938 41.957031 -59.738281 Z M 58.394531 -62.382812 C 58.441406 -62.429688 58.535156 -62.429688 58.632812 -62.382812 C 58.777344 -62.332031 58.730469 -62.285156 58.585938 -62.285156 C 58.441406 -62.285156 58.34375 -62.332031 58.394531 -62.382812 Z M 57.71875 -62.382812 C 57.769531 -62.429688 57.863281 -62.429688 57.960938 -62.382812 C 58.054688 -62.332031 58.054688 -62.285156 57.914062 -62.285156 C 57.71875 -62.285156 57.671875 -62.332031 57.71875 -62.382812 Z M 56.085938 -62.238281 C 56.277344 -62.285156 56.566406 -62.285156 56.757812 -62.238281 C 56.902344 -62.191406 56.757812 -62.191406 56.375 -62.191406 C 55.988281 -62.191406 55.847656 -62.191406 56.085938 -62.238281 Z M 53.828125 -62.09375 C 53.972656 -62.140625 54.257812 -62.140625 54.402344 -62.09375 C 54.597656 -62.046875 54.453125 -62.046875 54.117188 -62.046875 C 53.777344 -62.046875 53.636719 -62.046875 53.828125 -62.09375 Z M 50.464844 -61.757812 C 50.464844 -61.757812 51.039062 -61.851562 51.761719 -61.902344 C 52.625 -61.949219 52.769531 -61.949219 52.289062 -61.851562 C 51.570312 -61.710938 50.367188 -61.660156 50.464844 -61.757812 Z M 50.175781 -61.179688 C 50.320312 -61.226562 50.558594 -61.226562 50.65625 -61.179688 C 50.800781 -61.179688 50.703125 -61.132812 50.414062 -61.132812 C 50.175781 -61.132812 50.078125 -61.179688 50.175781 -61.179688 Z M 49.308594 -61.613281 C 49.40625 -61.660156 49.550781 -61.660156 49.644531 -61.613281 C 49.742188 -61.613281 49.695312 -61.566406 49.5 -61.566406 C 49.308594 -61.566406 49.214844 -61.613281 49.308594 -61.613281 Z M 47.628906 -61.515625 C 47.820312 -61.515625 48.15625 -61.515625 48.347656 -61.515625 C 48.589844 -61.46875 48.394531 -61.421875 47.964844 -61.421875 C 47.578125 -61.421875 47.386719 -61.46875 47.628906 -61.515625 Z M 46.570312 -61.324219 C 46.667969 -61.371094 46.859375 -61.371094 46.953125 -61.324219 C 47.003906 -61.277344 46.953125 -61.277344 46.761719 -61.277344 C 46.570312 -61.277344 46.472656 -61.277344 46.570312 -61.324219 Z M 45.367188 -61.179688 C 45.464844 -61.226562 45.609375 -61.226562 45.753906 -61.179688 C 45.898438 -61.179688 45.800781 -61.132812 45.609375 -61.132812 C 45.367188 -61.132812 45.273438 -61.132812 45.367188 -61.179688 Z M 45.273438 -60.605469 C 45.320312 -60.652344 45.464844 -60.652344 45.5625 -60.605469 C 45.65625 -60.554688 45.609375 -60.507812 45.464844 -60.507812 C 45.320312 -60.507812 45.273438 -60.507812 45.273438 -60.605469 Z M 44.359375 -61.035156 C 44.457031 -61.085938 44.695312 -61.085938 44.792969 -61.035156 C 44.9375 -61.035156 44.839844 -60.988281 44.550781 -60.988281 C 44.3125 -60.988281 44.214844 -61.035156 44.359375 -61.035156 Z M 43.300781 -59.929688 C 43.0625 -59.929688 42.964844 -59.929688 43.0625 -59.980469 C 43.109375 -60.027344 43.300781 -60.027344 43.445312 -59.980469 C 43.589844 -59.929688 43.496094 -59.929688 43.300781 -59.929688 Z M 43.351562 -60.84375 C 43.0625 -60.84375 42.964844 -60.84375 43.109375 -60.890625 C 43.253906 -60.941406 43.445312 -60.941406 43.589844 -60.890625 C 43.6875 -60.84375 43.589844 -60.84375 43.351562 -60.84375 Z M 47.097656 -59.304688 C 46.859375 -59.113281 45.847656 -58.96875 46.042969 -59.160156 C 46.136719 -59.257812 46.425781 -59.355469 46.714844 -59.402344 C 46.953125 -59.402344 47.148438 -59.355469 47.097656 -59.304688 Z M 50.65625 -59.59375 C 50.367188 -59.546875 50.175781 -59.59375 50.222656 -59.640625 C 50.269531 -59.882812 51.136719 -59.980469 51.136719 -59.785156 C 51.136719 -59.691406 50.894531 -59.59375 50.65625 -59.59375 Z M 53.730469 -59.5 C 53.394531 -59.5 53.25 -59.5 53.394531 -59.546875 C 53.585938 -59.59375 53.828125 -59.59375 54.019531 -59.546875 C 54.210938 -59.5 54.066406 -59.5 53.730469 -59.5 Z M 54.210938 -60.027344 C 54.164062 -59.929688 54.066406 -59.882812 53.972656 -59.882812 C 53.777344 -59.882812 53.828125 -59.980469 54.066406 -60.125 C 54.164062 -60.125 54.257812 -60.125 54.210938 -60.027344 Z M 54.597656 -59.59375 C 54.546875 -59.691406 54.597656 -59.738281 54.742188 -59.738281 C 54.835938 -59.738281 54.933594 -59.738281 54.933594 -59.691406 C 54.933594 -59.546875 54.691406 -59.449219 54.597656 -59.59375 Z M 64.542969 -61.851562 C 63.726562 -61.757812 62.621094 -61.613281 62.046875 -61.566406 C 61.46875 -61.46875 60.171875 -61.277344 59.113281 -61.179688 C 58.105469 -61.035156 57.238281 -60.941406 57.144531 -60.890625 C 57.09375 -60.84375 56.132812 -60.746094 55.078125 -60.652344 C 53.972656 -60.554688 52.769531 -60.460938 52.289062 -60.410156 C 51.761719 -60.363281 51.519531 -60.363281 51.570312 -60.460938 C 51.664062 -60.605469 51.425781 -60.652344 50.992188 -60.652344 C 50.175781 -60.652344 47.773438 -60.363281 47.433594 -60.21875 C 47.339844 -60.171875 47.195312 -60.171875 47.148438 -60.171875 C 47.097656 -60.171875 46.859375 -60.125 46.667969 -60.074219 C 46.1875 -59.929688 43.734375 -60.027344 43.734375 -60.171875 C 43.734375 -60.21875 44.023438 -60.265625 44.3125 -60.21875 C 45.175781 -60.125 46.089844 -60.316406 46.042969 -60.554688 C 45.992188 -60.699219 46.042969 -60.796875 46.136719 -60.796875 C 46.28125 -60.796875 46.28125 -60.699219 46.28125 -60.554688 C 46.1875 -60.363281 46.28125 -60.316406 47.050781 -60.410156 C 47.53125 -60.460938 48.300781 -60.554688 48.78125 -60.652344 C 50.320312 -60.890625 61.035156 -61.757812 64.160156 -61.902344 L 66.082031 -61.949219 Z M 40.464844 -29.988281 C 40.464844 -29.84375 40.609375 -29.894531 40.804688 -30.039062 C 40.996094 -30.183594 41.234375 -30.230469 41.285156 -30.230469 C 41.378906 -30.183594 41.476562 -30.230469 41.523438 -30.324219 C 41.714844 -30.613281 41.957031 -31.480469 41.859375 -31.527344 C 41.765625 -31.671875 40.464844 -30.183594 40.464844 -29.988281 Z M 40.464844 -29.988281 "/></g></g></g><g fill="#d9d9d9" fill-opacity="1"><g transform="translate(154.872866, 215.766372)"><g/></g></g><g fill="#d9d9d9" fill-opacity="1"><g transform="translate(174.096295, 215.766372)"><g><path d="M 4.132812 -23.644531 C 6.535156 -23.886719 11.390625 -23.886719 16.292969 -23.597656 C 19.65625 -23.453125 19.898438 -23.453125 20.136719 -23.695312 C 20.328125 -23.886719 20.328125 -23.980469 20.234375 -24.175781 C 20.136719 -24.320312 20.136719 -24.414062 20.28125 -24.414062 C 20.378906 -24.460938 20.378906 -24.558594 20.28125 -24.800781 C 20.234375 -24.941406 20.183594 -25.136719 20.234375 -25.230469 C 20.28125 -25.28125 20.28125 -25.375 20.183594 -25.375 C 20.136719 -25.375 20.089844 -25.472656 20.136719 -25.566406 C 20.183594 -25.664062 20.136719 -25.90625 20.042969 -26.046875 C 19.898438 -26.289062 19.898438 -26.386719 19.992188 -26.433594 C 20.136719 -26.527344 20.136719 -26.625 19.992188 -26.914062 C 19.800781 -27.394531 19.945312 -27.347656 15.957031 -27.441406 C 14.273438 -27.441406 11.871094 -27.539062 10.574219 -27.585938 C 9.277344 -27.632812 7.832031 -27.730469 7.402344 -27.730469 C 6.96875 -27.683594 5.191406 -27.730469 3.507812 -27.730469 C 1.828125 -27.777344 0.382812 -27.777344 0.335938 -27.730469 C 0.242188 -27.730469 0.144531 -27.492188 0.0976562 -27.25 C -0.046875 -26.769531 -0.046875 -26.816406 -0.191406 -26.433594 C -0.289062 -26.242188 -0.289062 -26.144531 -0.191406 -26.097656 C -0.0976562 -26.046875 -0.0976562 -25.953125 -0.242188 -25.710938 C -0.578125 -25.230469 -0.480469 -23.695312 -0.144531 -23.355469 C 0.191406 -23.019531 0.289062 -22.972656 0.914062 -23.117188 C 2.066406 -23.355469 3.414062 -23.597656 4.132812 -23.644531 Z M 4.132812 -23.644531 "/></g></g></g><g fill="#d9d9d9" fill-opacity="1"><g transform="translate(196.059062, 215.766372)"><g/></g></g><g fill="#d9d9d9" fill-opacity="1"><g transform="translate(215.282492, 215.766372)"><g><path d="M 10.765625 -36.429688 C 9.757812 -34.988281 7.160156 -30.855469 7.160156 -30.664062 C 7.160156 -30.613281 7.257812 -30.566406 7.351562 -30.566406 C 7.402344 -30.566406 7.976562 -31.382812 8.554688 -32.390625 C 10.71875 -36.140625 14.5625 -41.234375 17.589844 -44.40625 C 17.972656 -44.792969 18.214844 -45.128906 18.117188 -45.175781 C 17.78125 -45.417969 13.359375 -40.226562 10.765625 -36.429688 Z M 27.058594 -58.296875 C 27.105469 -58.25 27.539062 -58.535156 28.113281 -58.96875 L 29.078125 -59.691406 L 28.5 -59.066406 C 28.210938 -58.730469 27.875 -58.488281 27.828125 -58.488281 C 27.730469 -58.488281 27.632812 -58.394531 27.632812 -58.25 C 27.632812 -58.152344 27.539062 -58.007812 27.492188 -58.054688 C 27.296875 -58.054688 24.992188 -56.183594 24.992188 -55.988281 C 24.992188 -55.894531 25.28125 -56.132812 25.710938 -56.421875 C 26.433594 -57 26.625 -57.144531 26.625 -56.902344 C 26.625 -56.902344 25.472656 -55.894531 24.125 -54.742188 C 22.730469 -53.585938 20.617188 -51.710938 19.367188 -50.558594 C 18.117188 -49.40625 17.011719 -48.492188 16.917969 -48.539062 C 16.820312 -48.539062 16.628906 -48.445312 16.53125 -48.300781 C 16.386719 -48.058594 16.386719 -47.964844 16.582031 -47.964844 C 16.820312 -47.964844 17.0625 -47.675781 16.917969 -47.53125 C 16.867188 -47.484375 16.726562 -47.53125 16.582031 -47.628906 C 16.4375 -47.820312 16.339844 -47.773438 16.292969 -47.578125 C 16.195312 -47.484375 16.195312 -47.292969 16.246094 -47.195312 C 16.292969 -47.050781 16.246094 -47.050781 16.101562 -47.148438 C 15.859375 -47.242188 15.8125 -47.195312 15.859375 -47.050781 C 15.90625 -46.90625 15.859375 -46.808594 15.765625 -46.859375 C 15.523438 -46.953125 14.417969 -45.703125 14.5625 -45.464844 C 14.5625 -45.417969 14.417969 -45.128906 14.226562 -44.839844 C 12.015625 -42.101562 9.277344 -38.496094 8.796875 -37.773438 C 7.640625 -36.046875 4.710938 -31.09375 3.796875 -29.363281 C 1.828125 -25.617188 0.671875 -22.683594 -0.144531 -19.753906 L -0.433594 -18.695312 L -0.242188 -19.898438 C -0.0976562 -21.144531 0.433594 -23.070312 1.007812 -24.460938 C 1.539062 -25.710938 3.988281 -30.804688 4.855469 -32.25 C 5.621094 -33.640625 5.765625 -34.074219 5.480469 -34.074219 C 5.191406 -34.074219 1.777344 -27.441406 0.722656 -24.800781 C -0.578125 -21.628906 -1.152344 -18.023438 -0.578125 -17.15625 C -0.382812 -16.917969 -0.242188 -16.484375 -0.144531 -16.292969 C 0 -15.714844 0.191406 -15.425781 1.058594 -14.800781 C 2.355469 -13.792969 4.132812 -13.503906 6.007812 -14.035156 C 6.679688 -14.175781 8.9375 -15.332031 9.996094 -16.050781 C 10.285156 -16.246094 10.285156 -16.292969 10.09375 -16.4375 C 9.851562 -16.582031 11.054688 -17.636719 13.890625 -19.703125 C 14.5625 -20.234375 15.1875 -20.761719 15.234375 -20.953125 C 15.332031 -21.144531 15.476562 -21.289062 15.570312 -21.289062 C 15.714844 -21.289062 15.8125 -21.386719 15.8125 -21.433594 C 15.8125 -21.53125 16.195312 -21.964844 16.726562 -22.347656 C 17.207031 -22.78125 18.648438 -24.125 19.945312 -25.328125 C 21.242188 -26.578125 22.347656 -27.632812 22.492188 -27.683594 C 22.589844 -27.777344 23.117188 -28.308594 23.644531 -28.882812 C 25.085938 -30.375 28.5 -33.785156 30.421875 -35.660156 C 31.09375 -36.285156 32.488281 -37.582031 33.496094 -38.59375 C 34.601562 -39.601562 35.515625 -40.464844 35.5625 -40.5625 C 35.613281 -40.609375 36.574219 -41.523438 37.632812 -42.582031 C 38.6875 -43.636719 39.9375 -44.886719 40.417969 -45.367188 C 40.851562 -45.847656 41.234375 -46.234375 41.285156 -46.234375 C 41.285156 -46.1875 41.234375 -45.847656 41.140625 -45.417969 C 40.996094 -45.03125 40.753906 -43.78125 40.5625 -42.773438 C 39.984375 -39.503906 37.871094 -31.429688 36.910156 -28.789062 C 36.667969 -28.210938 36.476562 -27.585938 36.382812 -27.394531 C 36.238281 -26.960938 36.046875 -26.816406 33.785156 -25.761719 C 31.769531 -24.847656 29.507812 -23.550781 26.914062 -21.964844 C 26.097656 -21.484375 25.085938 -20.808594 24.605469 -20.523438 C 23.308594 -19.753906 21.628906 -18.453125 19.703125 -16.820312 C 14.945312 -12.785156 11.003906 -7.738281 9.179688 -3.414062 C 8.652344 -2.164062 8.554688 -1.730469 8.652344 -1.441406 C 8.699219 -1.203125 8.84375 -0.960938 8.9375 -0.914062 C 9.035156 -0.863281 9.082031 -0.671875 9.082031 -0.480469 C 9.082031 -0.335938 9.179688 0.144531 9.371094 0.527344 C 9.613281 1.152344 9.804688 1.34375 10.667969 1.777344 C 11.246094 2.066406 11.96875 2.402344 12.304688 2.449219 C 14.226562 2.933594 17.636719 1.632812 21.050781 -0.863281 C 23.40625 -2.59375 26.386719 -5.335938 27.632812 -7.015625 C 27.972656 -7.496094 28.355469 -7.929688 28.5 -8.027344 C 28.691406 -8.121094 29.125 -8.699219 29.507812 -9.324219 C 29.894531 -9.898438 30.277344 -10.382812 30.324219 -10.382812 C 30.46875 -10.382812 31.480469 -11.773438 31.480469 -11.96875 C 31.480469 -12.015625 31.671875 -12.253906 31.863281 -12.398438 C 32.296875 -12.785156 34.699219 -16.773438 35.902344 -19.175781 C 36.863281 -20.953125 37.824219 -23.214844 38.207031 -24.414062 L 38.449219 -25.230469 L 40.464844 -26.144531 C 41.570312 -26.671875 42.628906 -27.152344 42.917969 -27.25 C 43.15625 -27.296875 43.78125 -27.632812 44.261719 -27.875 C 44.695312 -28.113281 45.464844 -28.402344 45.945312 -28.5 C 46.523438 -28.59375 46.859375 -28.738281 46.90625 -28.933594 C 46.953125 -29.027344 46.90625 -29.171875 46.808594 -29.171875 C 46.714844 -29.171875 46.617188 -29.363281 46.617188 -29.605469 C 46.570312 -30.183594 46.042969 -30.46875 45.03125 -30.421875 C 44.601562 -30.421875 44.070312 -30.277344 43.78125 -30.132812 C 43.398438 -29.894531 41.285156 -29.078125 41.089844 -29.078125 C 41.042969 -29.078125 41.140625 -29.171875 41.332031 -29.316406 C 41.621094 -29.507812 41.621094 -29.507812 41.234375 -29.414062 C 41.042969 -29.414062 40.660156 -29.269531 40.417969 -29.171875 C 40.179688 -29.078125 39.9375 -28.980469 39.890625 -28.980469 C 39.839844 -28.980469 39.984375 -29.558594 40.179688 -30.230469 C 40.851562 -32.441406 42.582031 -38.832031 42.820312 -39.9375 C 43.351562 -42.390625 44.023438 -44.9375 44.886719 -47.722656 C 45.464844 -49.644531 45.417969 -49.5 45.464844 -50.414062 C 45.464844 -50.945312 45.417969 -51.085938 45.222656 -51.039062 C 44.742188 -50.894531 44.550781 -51.136719 44.648438 -51.664062 C 44.792969 -52.242188 44.839844 -52.191406 43.589844 -52.335938 C 43.109375 -52.386719 43.015625 -52.386719 43.015625 -52.191406 C 43.0625 -51.953125 41.957031 -50.65625 41.425781 -50.222656 C 41.378906 -50.222656 40.851562 -49.644531 40.273438 -49.019531 C 39.648438 -48.394531 38.6875 -47.386719 38.160156 -46.859375 C 36.429688 -45.175781 35.949219 -44.601562 35.902344 -44.167969 C 35.804688 -43.589844 35.804688 -43.589844 35.660156 -43.832031 C 35.515625 -44.023438 35.324219 -43.878906 34.507812 -43.15625 C 32.96875 -41.714844 31.960938 -40.660156 31.960938 -40.515625 C 31.910156 -40.324219 30.230469 -38.6875 28.5 -37.199219 C 27.777344 -36.574219 27.203125 -35.996094 27.203125 -35.949219 C 27.203125 -35.851562 26.960938 -35.660156 26.722656 -35.515625 C 26.191406 -35.132812 24.558594 -33.59375 23.742188 -32.679688 C 23.453125 -32.390625 22.445312 -31.429688 21.433594 -30.566406 C 20.472656 -29.652344 18.984375 -28.308594 18.167969 -27.539062 C 15.90625 -25.375 10.332031 -20.714844 10.09375 -20.714844 C 9.851562 -20.761719 9.5625 -20.570312 7.066406 -18.9375 C 5.429688 -17.878906 2.980469 -16.726562 2.066406 -16.675781 C 1.585938 -16.675781 1.539062 -16.675781 1.488281 -17.109375 C 1.296875 -18.214844 2.308594 -21.769531 3.363281 -23.835938 C 3.699219 -24.511719 3.941406 -25.136719 3.941406 -25.28125 C 3.894531 -25.472656 3.941406 -25.566406 4.085938 -25.566406 C 4.179688 -25.566406 4.46875 -26 4.660156 -26.578125 C 5.09375 -27.539062 5.382812 -28.066406 7.882812 -32.390625 C 8.601562 -33.640625 9.179688 -34.699219 9.179688 -34.746094 C 9.179688 -34.84375 9.226562 -34.941406 9.324219 -34.890625 C 9.417969 -34.890625 9.707031 -35.226562 9.949219 -35.660156 C 11.871094 -38.832031 17.878906 -45.800781 21.628906 -49.214844 C 22.300781 -49.789062 22.875 -50.320312 22.875 -50.367188 C 22.875 -50.65625 29.796875 -56.277344 31.238281 -57.144531 C 34.460938 -59.160156 35.5625 -59.738281 37.488281 -60.171875 C 39.074219 -60.507812 39.074219 -60.507812 39.023438 -59.59375 C 38.878906 -57.382812 36.1875 -52.191406 33.785156 -49.40625 C 33.015625 -48.539062 32.390625 -47.722656 32.441406 -47.578125 C 32.441406 -47.484375 32.585938 -47.339844 32.777344 -47.292969 C 32.921875 -47.195312 33.066406 -47.050781 33.066406 -46.859375 C 33.015625 -46.617188 33.257812 -46.425781 33.929688 -46.042969 L 34.796875 -45.5625 L 35.5625 -46.089844 C 35.949219 -46.378906 36.476562 -46.667969 36.71875 -46.667969 C 36.957031 -46.714844 37.246094 -46.90625 37.34375 -47.050781 C 37.4375 -47.195312 37.679688 -47.433594 37.824219 -47.578125 C 38.542969 -48.253906 41.089844 -53.058594 41.765625 -55.078125 C 42.101562 -55.988281 42.148438 -56.519531 42.148438 -57.480469 C 42.148438 -59.449219 42.003906 -59.835938 40.753906 -61.179688 C 39.410156 -62.621094 38.738281 -63.007812 37.390625 -63.101562 C 36.285156 -63.152344 34.796875 -63.007812 34.746094 -62.8125 C 34.746094 -62.621094 33.640625 -62.238281 33.066406 -62.238281 C 32.535156 -62.238281 31.527344 -61.660156 29.605469 -60.316406 C 27.921875 -59.160156 26.960938 -58.394531 27.058594 -58.296875 Z M 21.195312 -17.398438 C 22.492188 -18.550781 25.230469 -20.472656 25.328125 -20.378906 C 25.375 -20.328125 24.894531 -19.992188 24.320312 -19.558594 C 23.695312 -19.175781 22.445312 -18.261719 21.53125 -17.542969 L 19.847656 -16.246094 Z M 18.503906 -15.140625 C 18.695312 -15.28125 18.839844 -15.425781 18.886719 -15.425781 C 18.9375 -15.425781 18.839844 -15.28125 18.648438 -15.140625 C 18.503906 -14.945312 18.3125 -14.800781 18.261719 -14.851562 C 18.261719 -14.851562 18.359375 -14.996094 18.503906 -15.140625 Z M 14.035156 1.441406 C 13.695312 1.632812 12.640625 1.730469 12.832031 1.585938 C 12.929688 1.488281 13.3125 1.441406 13.648438 1.394531 C 14.082031 1.34375 14.175781 1.394531 14.035156 1.441406 Z M 19.800781 -2.933594 C 19.511719 -2.691406 19.222656 -2.5 19.128906 -2.5 C 19.078125 -2.5 19.222656 -2.691406 19.464844 -2.933594 C 19.753906 -3.171875 20.042969 -3.363281 20.136719 -3.363281 C 20.183594 -3.316406 20.089844 -3.171875 19.800781 -2.933594 Z M 20.953125 -1.875 C 20.808594 -1.730469 20.523438 -1.539062 20.328125 -1.441406 C 20.042969 -1.296875 20.042969 -1.34375 20.234375 -1.585938 C 20.378906 -1.683594 20.664062 -1.875 20.859375 -1.96875 C 21.144531 -2.066406 21.144531 -2.066406 20.953125 -1.875 Z M 23.164062 -3.171875 C 22.445312 -2.59375 21.769531 -2.066406 21.628906 -1.96875 C 21.289062 -1.828125 21.339844 -2.210938 21.675781 -2.546875 C 21.914062 -2.835938 21.914062 -2.835938 21.820312 -2.546875 C 21.722656 -2.308594 21.722656 -2.257812 21.964844 -2.449219 C 22.109375 -2.546875 22.300781 -2.835938 22.347656 -3.027344 C 22.492188 -3.460938 22.828125 -3.699219 23.117188 -3.507812 C 23.164062 -3.460938 23.261719 -3.507812 23.214844 -3.554688 C 23.164062 -3.84375 24.03125 -4.949219 24.367188 -5.09375 C 24.605469 -5.140625 24.941406 -5.382812 25.136719 -5.621094 C 25.328125 -5.910156 25.664062 -6.152344 25.90625 -6.199219 C 26.097656 -6.296875 26.335938 -6.488281 26.386719 -6.726562 C 26.480469 -6.921875 26.578125 -7.113281 26.671875 -7.066406 C 26.769531 -7.066406 26.816406 -7.160156 26.816406 -7.304688 C 26.816406 -7.402344 26.914062 -7.546875 27.007812 -7.496094 C 27.203125 -7.496094 28.066406 -8.363281 28.113281 -8.601562 C 28.113281 -8.988281 28.59375 -9.515625 28.980469 -9.660156 C 29.171875 -9.757812 29.363281 -9.949219 29.363281 -10.042969 C 29.363281 -10.1875 29.460938 -10.285156 29.558594 -10.285156 C 30.132812 -10.238281 25.472656 -5.046875 23.164062 -3.171875 Z M 24.65625 -6.726562 C 24.703125 -6.726562 24.65625 -6.632812 24.605469 -6.535156 C 24.558594 -6.390625 24.414062 -6.296875 24.367188 -6.296875 C 24.269531 -6.296875 24.269531 -6.390625 24.367188 -6.535156 C 24.511719 -6.632812 24.605469 -6.726562 24.65625 -6.726562 Z M 24.800781 -8.21875 C 25.039062 -8.457031 25.136719 -8.457031 25.136719 -8.265625 C 25.136719 -8.21875 24.992188 -8.121094 24.847656 -8.074219 C 24.65625 -7.976562 24.65625 -8.027344 24.800781 -8.21875 Z M 24.175781 -7.304688 C 23.980469 -7.066406 23.550781 -6.679688 23.261719 -6.441406 L 22.730469 -6.007812 L 23.261719 -6.632812 C 23.5 -6.921875 23.933594 -7.304688 24.175781 -7.449219 L 24.511719 -7.738281 Z M 23.695312 -5.574219 C 23.597656 -5.429688 23.453125 -5.285156 23.355469 -5.285156 C 23.261719 -5.285156 23.308594 -5.429688 23.40625 -5.574219 C 23.550781 -5.765625 23.695312 -5.863281 23.742188 -5.863281 C 23.835938 -5.863281 23.789062 -5.71875 23.695312 -5.574219 Z M 27.394531 -11.292969 C 27.539062 -11.488281 27.683594 -11.582031 27.730469 -11.535156 C 27.730469 -11.488281 27.632812 -11.34375 27.492188 -11.199219 C 27.203125 -11.003906 27.203125 -11.003906 27.394531 -11.292969 Z M 28.546875 -11.96875 C 28.644531 -12.0625 28.789062 -12.160156 28.835938 -12.160156 C 28.882812 -12.160156 28.835938 -12.0625 28.691406 -11.96875 C 28.59375 -11.824219 28.453125 -11.726562 28.402344 -11.726562 C 28.355469 -11.726562 28.453125 -11.824219 28.546875 -11.96875 Z M 30.855469 -14.464844 C 30.902344 -14.417969 30.757812 -14.082031 30.566406 -13.746094 C 30.230469 -13.214844 30.039062 -13.023438 30.039062 -13.265625 C 30.085938 -13.457031 30.804688 -14.515625 30.855469 -14.464844 Z M 30.804688 -15.1875 L 31.09375 -15.667969 C 31.335938 -16.148438 31.527344 -16.292969 31.527344 -16.050781 C 31.480469 -15.957031 31.335938 -15.765625 31.144531 -15.570312 Z M 30.277344 -14.175781 C 29.988281 -13.695312 29.699219 -13.359375 29.652344 -13.359375 C 29.558594 -13.359375 29.558594 -13.359375 30.183594 -14.371094 C 30.421875 -14.800781 30.710938 -15.140625 30.757812 -15.089844 C 30.757812 -15.042969 30.566406 -14.660156 30.277344 -14.175781 Z M 30.757812 -11.773438 C 29.941406 -10.523438 29.605469 -10.140625 29.84375 -10.71875 C 29.894531 -10.957031 30.039062 -11.101562 30.085938 -11.148438 C 30.183594 -11.148438 30.230469 -11.292969 30.277344 -11.390625 C 30.277344 -11.535156 30.375 -11.628906 30.421875 -11.628906 C 30.519531 -11.628906 30.613281 -11.679688 30.566406 -11.773438 C 30.519531 -12.0625 31.144531 -12.929688 31.335938 -12.929688 C 31.429688 -12.929688 31.191406 -12.398438 30.757812 -11.773438 Z M 32.488281 -14.320312 C 32.296875 -13.746094 32.25 -13.695312 32.007812 -13.839844 C 31.863281 -13.984375 31.816406 -13.984375 31.863281 -13.890625 C 31.960938 -13.792969 31.960938 -13.601562 31.863281 -13.457031 C 31.769531 -13.214844 31.480469 -13.121094 31.480469 -13.3125 C 31.527344 -13.503906 32.296875 -14.945312 32.441406 -15.042969 C 32.730469 -15.234375 32.777344 -15.042969 32.488281 -14.320312 Z M 32.632812 -16.628906 C 32.585938 -16.675781 32.296875 -16.386719 32.105469 -16.003906 C 31.671875 -15.28125 31.09375 -14.660156 31.09375 -14.800781 C 31.144531 -14.851562 31.480469 -15.425781 31.910156 -16.148438 C 32.34375 -16.820312 32.679688 -17.398438 32.730469 -17.445312 C 32.730469 -17.492188 32.824219 -17.636719 33.015625 -17.832031 L 33.257812 -18.117188 L 33.113281 -17.832031 C 33.066406 -17.636719 32.96875 -17.398438 32.96875 -17.253906 C 32.96875 -17.109375 32.921875 -17.011719 32.824219 -17.0625 C 32.730469 -17.109375 32.679688 -17.109375 32.679688 -17.011719 C 32.679688 -16.917969 32.730469 -16.820312 32.824219 -16.820312 C 32.921875 -16.820312 32.96875 -16.773438 32.871094 -16.675781 C 32.824219 -16.582031 32.730469 -16.582031 32.632812 -16.628906 Z M 31.71875 -16.726562 C 31.71875 -16.820312 31.816406 -16.917969 31.863281 -16.964844 C 31.960938 -17.011719 32.054688 -16.964844 32.007812 -16.917969 C 32.007812 -16.820312 31.960938 -16.726562 31.863281 -16.675781 C 31.769531 -16.628906 31.71875 -16.628906 31.71875 -16.726562 Z M 33.691406 -16.53125 C 33.449219 -16.148438 33.160156 -15.667969 33.015625 -15.523438 C 32.777344 -15.234375 32.777344 -15.28125 32.871094 -15.765625 C 33.113281 -16.4375 33.355469 -16.820312 33.785156 -17.15625 C 34.21875 -17.492188 34.21875 -17.398438 33.691406 -16.53125 Z M 34.265625 -19.65625 C 34.171875 -19.558594 34.121094 -19.511719 34.121094 -19.609375 C 34.121094 -19.703125 34.21875 -19.847656 34.265625 -19.992188 C 34.410156 -20.089844 34.460938 -20.136719 34.460938 -20.042969 C 34.460938 -19.945312 34.363281 -19.800781 34.265625 -19.65625 Z M 29.605469 -14.515625 C 29.269531 -13.9375 28.882812 -13.265625 28.738281 -13.074219 C 28.644531 -12.832031 28.5 -12.640625 28.402344 -12.640625 C 28.308594 -12.6875 28.308594 -12.589844 28.355469 -12.496094 C 28.402344 -12.398438 28.355469 -12.398438 28.210938 -12.449219 C 28.113281 -12.496094 27.683594 -12.109375 27.203125 -11.4375 C 26.722656 -10.863281 26.242188 -10.238281 26.046875 -10.09375 C 25.855469 -9.996094 25.710938 -9.757812 25.710938 -9.660156 C 25.710938 -9.515625 25.617188 -9.46875 25.566406 -9.46875 C 25.519531 -9.46875 25.328125 -9.277344 25.136719 -9.035156 C 24.992188 -8.84375 24.269531 -8.074219 23.5 -7.351562 C 22.445312 -6.246094 22.15625 -5.910156 22.25 -5.621094 C 22.300781 -5.335938 22.25 -5.335938 22.058594 -5.480469 C 21.914062 -5.671875 21.769531 -5.621094 21.339844 -5.238281 C 20.472656 -4.421875 15.378906 -1.25 14.660156 -1.058594 C 14.515625 -1.007812 14.464844 -0.914062 14.515625 -0.863281 C 14.609375 -0.722656 16.339844 -1.203125 17.0625 -1.539062 C 17.351562 -1.683594 17.6875 -1.828125 17.832031 -1.828125 C 18.023438 -1.777344 18.023438 -1.730469 17.78125 -1.394531 C 17.445312 -1.007812 15.476562 -0.046875 14.175781 0.289062 C 13.074219 0.578125 11.96875 0.625 11.292969 0.433594 C 10.71875 0.242188 10.476562 0.046875 10.863281 0.046875 C 11.003906 0.0976562 11.148438 0 11.199219 -0.0976562 C 11.292969 -0.191406 11.199219 -0.242188 11.054688 -0.191406 C 10.574219 -0.144531 10.332031 -0.382812 10.382812 -0.863281 C 10.429688 -1.730469 11.824219 -4.519531 12.734375 -5.621094 C 12.929688 -5.863281 13.410156 -6.535156 13.839844 -7.160156 C 14.996094 -8.796875 17.6875 -11.582031 20.183594 -13.695312 C 22.300781 -15.523438 25.519531 -18.023438 26.816406 -18.839844 C 27.203125 -19.03125 27.539062 -19.320312 27.632812 -19.417969 C 27.730469 -19.511719 27.875 -19.609375 27.972656 -19.609375 C 28.066406 -19.609375 28.546875 -19.898438 29.078125 -20.234375 C 30.46875 -21.195312 34.699219 -23.5 34.652344 -23.261719 C 34.652344 -22.683594 31.960938 -18.070312 29.605469 -14.515625 Z M 23.453125 -17.925781 C 24.078125 -18.453125 24.65625 -18.886719 24.75 -18.886719 C 24.800781 -18.886719 24.511719 -18.597656 24.03125 -18.261719 C 22.539062 -17.109375 22.25 -16.964844 23.453125 -17.925781 Z M 35.46875 -19.800781 C 35.371094 -19.609375 35.277344 -19.464844 35.179688 -19.464844 C 35.132812 -19.464844 35.179688 -19.609375 35.277344 -19.847656 C 35.515625 -20.28125 35.613281 -20.234375 35.46875 -19.800781 Z M 34.316406 -24.703125 C 31.910156 -23.550781 26.816406 -20.664062 24.894531 -19.367188 C 23.933594 -18.695312 22.492188 -17.636719 21.722656 -17.011719 C 20.953125 -16.386719 19.898438 -15.476562 19.320312 -14.996094 C 18.792969 -14.515625 18.40625 -14.273438 18.503906 -14.417969 C 18.792969 -14.945312 23.019531 -18.359375 24.992188 -19.703125 C 26.867188 -21.003906 30.324219 -23.019531 32.96875 -24.320312 C 33.785156 -24.75 34.746094 -25.230469 35.082031 -25.421875 C 35.707031 -25.710938 35.949219 -25.761719 35.902344 -25.566406 C 35.902344 -25.519531 35.226562 -25.136719 34.316406 -24.703125 Z M 37.390625 -24.078125 C 37.34375 -23.933594 37.246094 -23.933594 37.246094 -23.980469 C 37.246094 -24.078125 37.34375 -24.269531 37.4375 -24.367188 C 37.535156 -24.511719 37.582031 -24.511719 37.582031 -24.460938 C 37.582031 -24.367188 37.488281 -24.222656 37.390625 -24.078125 Z M 38.738281 -30.277344 C 38.59375 -30.132812 38.59375 -30.132812 38.59375 -30.421875 C 38.59375 -30.613281 38.6875 -30.757812 38.785156 -30.757812 C 38.878906 -30.757812 38.929688 -30.710938 38.929688 -30.613281 C 38.929688 -30.566406 38.832031 -30.421875 38.738281 -30.277344 Z M 39.265625 -32.007812 C 39.074219 -31.527344 39.023438 -31.429688 39.023438 -31.671875 C 39.023438 -32.152344 39.457031 -33.304688 39.503906 -33.015625 C 39.503906 -32.871094 39.410156 -32.441406 39.265625 -32.007812 Z M 39.699219 -33.402344 C 39.648438 -33.304688 39.601562 -33.355469 39.601562 -33.546875 C 39.601562 -33.691406 39.648438 -33.785156 39.699219 -33.738281 C 39.746094 -33.640625 39.746094 -33.546875 39.699219 -33.402344 Z M 44.648438 -29.460938 C 44.984375 -29.558594 46.28125 -29.558594 46.136719 -29.460938 C 46.136719 -29.414062 45.703125 -29.414062 45.222656 -29.363281 C 44.648438 -29.363281 44.457031 -29.363281 44.648438 -29.460938 Z M 36.382812 -43.351562 C 36.1875 -43.351562 36.1875 -43.445312 36.429688 -43.589844 C 36.527344 -43.636719 36.574219 -43.589844 36.574219 -43.496094 C 36.574219 -43.398438 36.476562 -43.351562 36.382812 -43.351562 Z M 36.476562 -44.550781 C 36.574219 -44.550781 36.621094 -44.550781 36.621094 -44.503906 C 36.621094 -44.457031 36.574219 -44.40625 36.476562 -44.3125 C 36.382812 -44.3125 36.285156 -44.3125 36.332031 -44.40625 C 36.332031 -44.503906 36.382812 -44.601562 36.476562 -44.550781 Z M 31.71875 -39.9375 C 31.816406 -39.9375 31.910156 -39.9375 31.910156 -39.890625 C 31.910156 -39.839844 31.816406 -39.792969 31.71875 -39.699219 C 31.625 -39.699219 31.574219 -39.699219 31.574219 -39.792969 C 31.574219 -39.890625 31.671875 -39.9375 31.71875 -39.9375 Z M 30.375 -38.59375 C 30.519531 -38.6875 30.613281 -38.785156 30.664062 -38.785156 C 30.710938 -38.785156 30.664062 -38.6875 30.519531 -38.542969 C 30.421875 -38.449219 30.277344 -38.351562 30.277344 -38.351562 C 30.230469 -38.351562 30.277344 -38.449219 30.375 -38.59375 Z M 28.5 -36.863281 C 28.644531 -36.957031 28.789062 -37.054688 28.835938 -37.054688 C 28.882812 -37.054688 28.789062 -36.957031 28.691406 -36.8125 C 28.59375 -36.71875 28.453125 -36.621094 28.402344 -36.621094 C 28.355469 -36.621094 28.402344 -36.71875 28.5 -36.863281 Z M 28.355469 -34.796875 C 28.402344 -34.796875 28.355469 -34.699219 28.210938 -34.554688 C 28.113281 -34.460938 27.972656 -34.363281 27.921875 -34.363281 C 27.875 -34.363281 27.921875 -34.460938 28.066406 -34.554688 C 28.164062 -34.699219 28.308594 -34.796875 28.355469 -34.796875 Z M 27.585938 -35.949219 C 27.875 -36.238281 28.113281 -36.429688 28.164062 -36.382812 C 28.210938 -36.332031 27.972656 -36.09375 27.683594 -35.851562 L 27.105469 -35.371094 Z M 26.960938 -34.507812 C 27.058594 -34.554688 27.105469 -34.507812 27.105469 -34.410156 C 27.105469 -34.316406 27.007812 -34.265625 26.914062 -34.265625 C 26.722656 -34.265625 26.722656 -34.363281 26.960938 -34.507812 Z M 25.519531 -33.835938 C 25.808594 -34.074219 25.664062 -33.882812 25.136719 -33.355469 C 24.65625 -32.824219 24.175781 -32.390625 24.078125 -32.34375 C 23.742188 -32.152344 24.894531 -33.355469 25.519531 -33.835938 Z M 23.261719 -31.625 C 23.40625 -31.769531 23.5 -31.863281 23.550781 -31.863281 C 23.597656 -31.863281 23.550781 -31.769531 23.453125 -31.625 C 23.308594 -31.527344 23.214844 -31.429688 23.164062 -31.429688 C 23.117188 -31.429688 23.164062 -31.527344 23.261719 -31.625 Z M 25.472656 -31.816406 C 25.519531 -31.769531 24.894531 -31.144531 24.125 -30.421875 C 23.355469 -29.652344 22.730469 -29.027344 22.683594 -29.027344 C 22.683594 -28.980469 22.636719 -28.980469 22.636719 -29.078125 C 22.636719 -29.21875 25.421875 -31.910156 25.472656 -31.816406 Z M 21.484375 -29.988281 C 22.109375 -30.46875 22.589844 -30.902344 22.589844 -30.855469 C 22.589844 -30.804688 22.109375 -30.324219 21.484375 -29.84375 C 20.90625 -29.316406 20.425781 -28.933594 20.425781 -28.980469 C 20.425781 -29.027344 20.90625 -29.460938 21.484375 -29.988281 Z M 19.078125 -25.664062 C 18.792969 -25.421875 18.648438 -25.328125 18.742188 -25.472656 C 18.886719 -25.761719 19.609375 -26.386719 19.609375 -26.242188 C 19.609375 -26.191406 19.367188 -25.953125 19.078125 -25.664062 Z M 16.484375 -25.230469 C 17.011719 -25.761719 17.636719 -26.335938 17.878906 -26.578125 C 18.117188 -26.816406 18.648438 -27.296875 19.03125 -27.683594 L 19.753906 -28.355469 L 19.175781 -27.683594 C 18.886719 -27.347656 17.925781 -26.433594 17.0625 -25.664062 C 16.148438 -24.941406 15.90625 -24.75 16.484375 -25.230469 Z M 15.476562 -46.425781 C 15.570312 -46.570312 15.714844 -46.667969 15.765625 -46.667969 C 15.8125 -46.667969 15.765625 -46.523438 15.621094 -46.425781 C 15.523438 -46.28125 15.378906 -46.1875 15.332031 -46.1875 C 15.28125 -46.1875 15.378906 -46.328125 15.476562 -46.425781 Z M 14.851562 -45.800781 C 15.042969 -45.945312 15.234375 -46.042969 15.28125 -46.042969 C 15.28125 -46.042969 15.1875 -45.945312 15.042969 -45.753906 C 14.851562 -45.609375 14.707031 -45.464844 14.660156 -45.464844 C 14.609375 -45.464844 14.707031 -45.609375 14.851562 -45.800781 Z M 2.019531 -23.070312 C 1.777344 -22.394531 1.539062 -21.339844 1.488281 -20.570312 C 1.441406 -20.136719 1.34375 -19.753906 1.25 -19.65625 C 1.152344 -19.558594 1.058594 -19.320312 1.007812 -19.078125 C 0.960938 -18.839844 0.914062 -19.03125 0.914062 -19.511719 C 0.960938 -20.042969 1.058594 -20.714844 1.152344 -21.003906 C 1.25 -21.289062 1.441406 -21.914062 1.585938 -22.394531 C 1.730469 -22.875 1.921875 -23.308594 2.019531 -23.355469 C 2.113281 -23.40625 2.113281 -23.308594 2.019531 -23.070312 Z M 2.546875 -24.269531 C 2.402344 -23.835938 2.210938 -23.5 2.164062 -23.5 C 2.066406 -23.550781 2.210938 -24.125 2.5 -24.800781 C 2.933594 -25.761719 2.933594 -25.28125 2.546875 -24.269531 Z M 15.332031 -44.40625 C 13.214844 -42.101562 12.109375 -40.753906 11.101562 -39.359375 C 10.476562 -38.449219 9.851562 -37.632812 9.757812 -37.488281 C 9.46875 -37.199219 8.121094 -34.988281 6.777344 -32.679688 C 6.199219 -31.625 5.527344 -30.421875 5.285156 -29.988281 C 5 -29.558594 4.804688 -28.933594 4.710938 -28.453125 C 4.710938 -28.019531 4.566406 -27.585938 4.46875 -27.492188 C 4.324219 -27.394531 4.324219 -27.441406 4.375 -27.730469 L 4.46875 -28.066406 L 4.132812 -27.730469 C 3.941406 -27.539062 3.796875 -27.25 3.796875 -27.105469 C 3.75 -26.960938 3.652344 -26.769531 3.605469 -26.769531 C 3.507812 -26.671875 3.414062 -26.480469 3.414062 -26.289062 C 3.414062 -26.097656 3.269531 -25.855469 3.125 -25.761719 C 2.882812 -25.566406 2.835938 -25.617188 2.980469 -25.953125 C 3.125 -26.335938 4.132812 -28.355469 5 -30.085938 C 5.238281 -30.613281 5.671875 -31.335938 5.910156 -31.71875 C 6.535156 -32.632812 6.535156 -32.679688 7.402344 -34.171875 C 8.507812 -36.140625 9.179688 -37.246094 9.613281 -37.726562 C 9.804688 -37.96875 10.140625 -38.398438 10.285156 -38.6875 C 10.476562 -38.976562 11.054688 -39.746094 11.582031 -40.417969 C 12.109375 -41.089844 12.640625 -41.8125 12.785156 -42.050781 C 13.167969 -42.628906 13.984375 -43.542969 14.898438 -44.261719 C 15.714844 -44.984375 15.957031 -45.03125 15.332031 -44.40625 Z M 16.246094 -45.367188 C 16.050781 -45.222656 16.003906 -45.222656 16.148438 -45.417969 C 16.195312 -45.5625 16.292969 -45.65625 16.339844 -45.609375 C 16.386719 -45.5625 16.339844 -45.417969 16.246094 -45.367188 Z M 18.648438 -47.820312 C 18.503906 -47.675781 18.3125 -47.578125 18.261719 -47.578125 C 18.214844 -47.578125 18.3125 -47.675781 18.503906 -47.867188 C 18.695312 -48.011719 18.839844 -48.109375 18.886719 -48.109375 C 18.9375 -48.109375 18.839844 -48.011719 18.648438 -47.820312 Z M 20.183594 -49.261719 C 19.847656 -48.878906 19.511719 -48.539062 19.464844 -48.539062 C 19.273438 -48.589844 19.511719 -48.878906 20.136719 -49.359375 L 20.808594 -49.933594 Z M 20.183594 -49.261719 "/></g></g></g><g fill="#d9d9d9" fill-opacity="1"><g transform="translate(137.948756, 302.840976)"><g><path d="M 0.484375 0.140625 L 0.546875 -0.0625 L 1.09375 -0.140625 C 1.363281 -0.171875 1.566406 -0.253906 1.703125 -0.390625 C 1.847656 -0.523438 1.957031 -0.738281 2.03125 -1.03125 L 5.171875 -12.328125 C 5.242188 -12.609375 5.265625 -12.84375 5.234375 -13.03125 C 5.203125 -13.21875 5.066406 -13.40625 4.828125 -13.59375 L 4.375 -13.90625 L 4.4375 -14.140625 L 14.78125 -11.28125 L 14 -7.921875 L 13.78125 -7.96875 L 13.40625 -10.265625 C 13.351562 -10.546875 13.273438 -10.785156 13.171875 -10.984375 C 13.066406 -11.191406 12.875 -11.335938 12.59375 -11.421875 L 8.6875 -12.5 L 6.96875 -6.25 L 9.296875 -5.609375 C 9.578125 -5.523438 9.816406 -5.535156 10.015625 -5.640625 C 10.210938 -5.753906 10.398438 -5.925781 10.578125 -6.15625 L 11.25 -6.890625 L 11.46875 -6.828125 L 10.390625 -2.9375 L 10.171875 -3 L 9.984375 -4.03125 C 9.929688 -4.320312 9.851562 -4.5625 9.75 -4.75 C 9.644531 -4.945312 9.453125 -5.085938 9.171875 -5.171875 L 6.84375 -5.8125 L 4.984375 0.90625 L 9.359375 2.125 C 9.648438 2.195312 9.894531 2.179688 10.09375 2.078125 C 10.289062 1.972656 10.476562 1.800781 10.65625 1.5625 L 12.09375 -0.234375 L 12.3125 -0.171875 L 11.265625 3.125 Z M 0.484375 0.140625 "/></g></g></g><g fill="#d9d9d9" fill-opacity="1"><g transform="translate(150.540912, 306.311527)"><g><path d="M 0.296875 0.0625 L 0.34375 -0.15625 L 0.921875 -0.1875 C 1.273438 -0.1875 1.570312 -0.242188 1.8125 -0.359375 C 2.0625 -0.472656 2.304688 -0.65625 2.546875 -0.90625 L 5.59375 -3.859375 L 3.5 -9.1875 C 3.394531 -9.4375 3.296875 -9.628906 3.203125 -9.765625 C 3.117188 -9.910156 2.953125 -10.039062 2.703125 -10.15625 L 2.421875 -10.296875 L 2.453125 -10.53125 L 8.046875 -9.453125 L 8.015625 -9.21875 L 7.625 -9.21875 C 7.070312 -9.144531 6.910156 -8.832031 7.140625 -8.28125 L 8.390625 -5.140625 L 10.875 -7.484375 C 11.082031 -7.703125 11.195312 -7.894531 11.21875 -8.0625 C 11.238281 -8.226562 11.125 -8.375 10.875 -8.5 L 10.34375 -8.765625 L 10.375 -9 L 13.59375 -8.390625 L 13.5625 -8.15625 L 13 -8.125 C 12.664062 -8.09375 12.394531 -8.023438 12.1875 -7.921875 C 11.976562 -7.828125 11.75 -7.644531 11.5 -7.375 L 8.5625 -4.703125 L 10.703125 0.578125 C 10.953125 1.222656 11.367188 1.675781 11.953125 1.9375 L 12.296875 2.140625 L 12.25 2.359375 L 6.171875 1.1875 L 6.21875 0.96875 L 6.59375 0.9375 C 6.863281 0.925781 7.050781 0.835938 7.15625 0.671875 C 7.257812 0.503906 7.253906 0.289062 7.140625 0.03125 L 5.78125 -3.359375 L 3.125 -0.734375 C 2.882812 -0.523438 2.78125 -0.332031 2.8125 -0.15625 C 2.851562 0.0195312 2.984375 0.160156 3.203125 0.265625 L 3.640625 0.46875 L 3.59375 0.6875 Z M 0.296875 0.0625 "/></g></g></g><g fill="#d9d9d9" fill-opacity="1"><g transform="translate(163.629311, 308.774139)"><g><path d="M 5.9375 1.03125 C 4.914062 0.914062 4.019531 0.585938 3.25 0.046875 C 2.476562 -0.484375 1.898438 -1.195312 1.515625 -2.09375 C 1.128906 -2.988281 1.003906 -4.046875 1.140625 -5.265625 C 1.273438 -6.472656 1.65625 -7.472656 2.28125 -8.265625 C 2.90625 -9.066406 3.6875 -9.640625 4.625 -9.984375 C 5.5625 -10.328125 6.554688 -10.441406 7.609375 -10.328125 C 8.484375 -10.222656 9.195312 -10 9.75 -9.65625 C 10.3125 -9.3125 10.722656 -8.890625 10.984375 -8.390625 C 11.253906 -7.898438 11.359375 -7.414062 11.296875 -6.9375 C 11.253906 -6.507812 11.09375 -6.195312 10.8125 -6 C 10.53125 -5.800781 10.1875 -5.722656 9.78125 -5.765625 C 9.363281 -5.816406 9.035156 -6.015625 8.796875 -6.359375 C 8.566406 -6.703125 8.453125 -7.125 8.453125 -7.625 C 8.484375 -7.957031 8.523438 -8.238281 8.578125 -8.46875 C 8.640625 -8.695312 8.664062 -8.929688 8.65625 -9.171875 C 8.625 -9.441406 8.550781 -9.617188 8.4375 -9.703125 C 8.320312 -9.796875 8.148438 -9.859375 7.921875 -9.890625 C 7.023438 -9.992188 6.28125 -9.679688 5.6875 -8.953125 C 5.09375 -8.222656 4.695312 -7 4.5 -5.28125 C 4.320312 -3.78125 4.46875 -2.597656 4.9375 -1.734375 C 5.414062 -0.878906 6.234375 -0.382812 7.390625 -0.25 C 8.097656 -0.164062 8.675781 -0.222656 9.125 -0.421875 C 9.582031 -0.628906 10.046875 -0.960938 10.515625 -1.421875 L 10.71875 -1.21875 C 10.238281 -0.382812 9.582031 0.222656 8.75 0.609375 C 7.925781 1.003906 6.988281 1.144531 5.9375 1.03125 Z M 5.9375 1.03125 "/></g></g></g><g fill="#d9d9d9" fill-opacity="1"><g transform="translate(175.219417, 310.11487)"><g><path d="M 0.515625 0.015625 L 0.53125 -0.203125 L 0.796875 -0.28125 C 1.335938 -0.4375 1.617188 -0.800781 1.640625 -1.375 L 2.09375 -13.34375 C 2.101562 -13.65625 2.054688 -13.890625 1.953125 -14.046875 C 1.859375 -14.203125 1.660156 -14.320312 1.359375 -14.40625 L 1.03125 -14.515625 L 1.046875 -14.734375 L 5.015625 -15.546875 L 5.375 -15.34375 L 5.171875 -12.171875 L 5.078125 -9.390625 C 5.609375 -9.796875 6.179688 -10.140625 6.796875 -10.421875 C 7.410156 -10.710938 8.085938 -10.84375 8.828125 -10.8125 C 9.796875 -10.78125 10.550781 -10.476562 11.09375 -9.90625 C 11.644531 -9.332031 11.898438 -8.46875 11.859375 -7.3125 L 11.625 -0.984375 C 11.613281 -0.691406 11.664062 -0.453125 11.78125 -0.265625 C 11.894531 -0.078125 12.101562 0.0625 12.40625 0.15625 L 12.59375 0.25 L 12.578125 0.46875 L 7.34375 0.265625 L 7.359375 0.046875 L 7.625 -0.015625 C 8.164062 -0.171875 8.445312 -0.539062 8.46875 -1.125 L 8.734375 -8.171875 C 8.753906 -8.765625 8.664062 -9.175781 8.46875 -9.40625 C 8.28125 -9.632812 7.929688 -9.757812 7.421875 -9.78125 C 7.085938 -9.789062 6.722656 -9.738281 6.328125 -9.625 C 5.941406 -9.519531 5.539062 -9.320312 5.125 -9.03125 L 4.828125 -1.21875 C 4.804688 -0.632812 5.066406 -0.25 5.609375 -0.0625 L 5.78125 0 L 5.765625 0.21875 Z M 0.515625 0.015625 "/></g></g></g><g fill="#d9d9d9" fill-opacity="1"><g transform="translate(188.819173, 310.567975)"><g><path d="M 3.734375 0.1875 C 2.867188 0.226562 2.128906 0.015625 1.515625 -0.453125 C 0.910156 -0.929688 0.585938 -1.632812 0.546875 -2.5625 C 0.515625 -3.269531 0.847656 -3.929688 1.546875 -4.546875 C 2.242188 -5.160156 3.351562 -5.65625 4.875 -6.03125 C 5.101562 -6.082031 5.367188 -6.140625 5.671875 -6.203125 C 5.972656 -6.265625 6.285156 -6.332031 6.609375 -6.40625 L 6.53125 -8.171875 C 6.488281 -9.179688 6.335938 -9.882812 6.078125 -10.28125 C 5.816406 -10.6875 5.425781 -10.878906 4.90625 -10.859375 C 4.539062 -10.847656 4.253906 -10.722656 4.046875 -10.484375 C 3.847656 -10.242188 3.734375 -9.835938 3.703125 -9.265625 L 3.65625 -9.03125 C 3.664062 -8.382812 3.53125 -7.90625 3.25 -7.59375 C 2.976562 -7.28125 2.632812 -7.117188 2.21875 -7.109375 C 1.820312 -7.085938 1.492188 -7.191406 1.234375 -7.421875 C 0.972656 -7.648438 0.835938 -7.96875 0.828125 -8.375 C 0.796875 -8.976562 0.984375 -9.5 1.390625 -9.9375 C 1.804688 -10.375 2.359375 -10.707031 3.046875 -10.9375 C 3.742188 -11.175781 4.5 -11.3125 5.3125 -11.34375 C 6.644531 -11.40625 7.6875 -11.125 8.4375 -10.5 C 9.195312 -9.882812 9.601562 -8.851562 9.65625 -7.40625 L 9.875 -2.4375 C 9.894531 -1.769531 10.21875 -1.445312 10.84375 -1.46875 L 11.328125 -1.484375 L 11.546875 -1.3125 C 11.273438 -0.945312 10.976562 -0.65625 10.65625 -0.4375 C 10.332031 -0.226562 9.863281 -0.113281 9.25 -0.09375 C 8.59375 -0.0625 8.066406 -0.191406 7.671875 -0.484375 C 7.273438 -0.773438 7.007812 -1.171875 6.875 -1.671875 C 6.445312 -1.179688 6.003906 -0.753906 5.546875 -0.390625 C 5.085938 -0.0351562 4.484375 0.15625 3.734375 0.1875 Z M 5.046875 -1.25 C 5.347656 -1.257812 5.625 -1.335938 5.875 -1.484375 C 6.132812 -1.640625 6.4375 -1.875 6.78125 -2.1875 L 6.625 -5.953125 C 6.476562 -5.921875 6.328125 -5.882812 6.171875 -5.84375 C 6.023438 -5.8125 5.859375 -5.78125 5.671875 -5.75 C 4.992188 -5.539062 4.457031 -5.210938 4.0625 -4.765625 C 3.664062 -4.328125 3.484375 -3.75 3.515625 -3.03125 C 3.546875 -2.414062 3.707031 -1.957031 4 -1.65625 C 4.289062 -1.363281 4.640625 -1.226562 5.046875 -1.25 Z M 5.046875 -1.25 "/></g></g></g><g fill="#d9d9d9" fill-opacity="1"><g transform="translate(201.02627, 310.063137)"><g><path d="M 0.453125 -0.046875 L 0.421875 -0.265625 L 0.734375 -0.40625 C 1.222656 -0.613281 1.429688 -1.003906 1.359375 -1.578125 L 0.515625 -8.5625 C 0.472656 -8.894531 0.390625 -9.128906 0.265625 -9.265625 C 0.148438 -9.410156 -0.0546875 -9.492188 -0.359375 -9.515625 L -0.6875 -9.5625 L -0.71875 -9.78125 L 2.921875 -11.546875 L 3.1875 -11.34375 L 3.515625 -10.03125 C 3.972656 -10.550781 4.515625 -11 5.140625 -11.375 C 5.765625 -11.75 6.394531 -11.976562 7.03125 -12.0625 C 8 -12.175781 8.78125 -12 9.375 -11.53125 C 9.96875 -11.0625 10.332031 -10.273438 10.46875 -9.171875 L 11.234375 -2.75 C 11.304688 -2.175781 11.632812 -1.851562 12.21875 -1.78125 L 12.421875 -1.71875 L 12.453125 -1.5 L 7.203125 -0.875 L 7.171875 -1.09375 L 7.453125 -1.21875 C 7.953125 -1.445312 8.164062 -1.835938 8.09375 -2.390625 L 7.234375 -9.515625 C 7.117188 -10.453125 6.585938 -10.863281 5.640625 -10.75 C 4.984375 -10.664062 4.3125 -10.253906 3.625 -9.515625 L 4.53125 -1.9375 C 4.601562 -1.363281 4.90625 -1.035156 5.4375 -0.953125 L 5.640625 -0.90625 L 5.671875 -0.6875 Z M 0.453125 -0.046875 "/></g></g></g><g fill="#d9d9d9" fill-opacity="1"><g transform="translate(214.491948, 308.393489)"><g><path d="M 4.46875 -4.859375 C 3.457031 -4.648438 2.566406 -4.640625 1.796875 -4.828125 L 1.953125 -4.09375 C 2.046875 -3.632812 2.320312 -3.410156 2.78125 -3.421875 L 7.0625 -3.484375 C 7.789062 -3.492188 8.453125 -3.453125 9.046875 -3.359375 C 9.648438 -3.265625 10.15625 -3.054688 10.5625 -2.734375 C 10.976562 -2.410156 11.253906 -1.910156 11.390625 -1.234375 C 11.535156 -0.515625 11.4375 0.191406 11.09375 0.890625 C 10.75 1.597656 10.15625 2.226562 9.3125 2.78125 C 8.476562 3.34375 7.378906 3.757812 6.015625 4.03125 C 4.835938 4.269531 3.878906 4.335938 3.140625 4.234375 C 2.398438 4.140625 1.847656 3.929688 1.484375 3.609375 C 1.128906 3.285156 0.910156 2.914062 0.828125 2.5 C 0.722656 1.96875 0.789062 1.394531 1.03125 0.78125 C 1.28125 0.175781 1.640625 -0.34375 2.109375 -0.78125 C 1.617188 -0.851562 1.242188 -1.003906 0.984375 -1.234375 C 0.722656 -1.472656 0.554688 -1.757812 0.484375 -2.09375 C 0.421875 -2.382812 0.441406 -2.671875 0.546875 -2.953125 C 0.660156 -3.242188 0.796875 -3.546875 0.953125 -3.859375 L 1.515625 -4.921875 C 0.316406 -5.316406 -0.414062 -6.175781 -0.6875 -7.5 C -0.90625 -8.550781 -0.703125 -9.484375 -0.078125 -10.296875 C 0.546875 -11.117188 1.585938 -11.675781 3.046875 -11.96875 C 3.796875 -12.113281 4.472656 -12.15625 5.078125 -12.09375 C 5.679688 -12.039062 6.195312 -11.890625 6.625 -11.640625 C 7.082031 -11.804688 7.5 -12.015625 7.875 -12.265625 C 8.257812 -12.515625 8.59375 -12.820312 8.875 -13.1875 L 9.21875 -13.03125 L 9.453125 -11.921875 L 6.96875 -11.421875 C 7.601562 -10.929688 8.015625 -10.222656 8.203125 -9.296875 C 8.410156 -8.265625 8.203125 -7.335938 7.578125 -6.515625 C 6.960938 -5.703125 5.925781 -5.148438 4.46875 -4.859375 Z M 4.34375 -5.296875 C 4.9375 -5.421875 5.316406 -5.75 5.484375 -6.28125 C 5.660156 -6.820312 5.632812 -7.648438 5.40625 -8.765625 C 5.175781 -9.898438 4.878906 -10.671875 4.515625 -11.078125 C 4.148438 -11.492188 3.6875 -11.644531 3.125 -11.53125 C 2.582031 -11.414062 2.222656 -11.09375 2.046875 -10.5625 C 1.867188 -10.03125 1.894531 -9.203125 2.125 -8.078125 C 2.351562 -6.953125 2.640625 -6.179688 2.984375 -5.765625 C 3.335938 -5.347656 3.789062 -5.191406 4.34375 -5.296875 Z M 2.3125 1.46875 C 2.488281 2.320312 2.882812 2.914062 3.5 3.25 C 4.125 3.582031 5.019531 3.632812 6.1875 3.40625 C 7.40625 3.15625 8.273438 2.769531 8.796875 2.25 C 9.328125 1.726562 9.523438 1.109375 9.390625 0.390625 C 9.296875 -0.0234375 9.078125 -0.320312 8.734375 -0.5 C 8.398438 -0.6875 7.851562 -0.773438 7.09375 -0.765625 L 2.96875 -0.71875 C 2.84375 -0.71875 2.71875 -0.722656 2.59375 -0.734375 C 2.445312 -0.390625 2.347656 -0.0195312 2.296875 0.375 C 2.242188 0.769531 2.25 1.132812 2.3125 1.46875 Z M 2.3125 1.46875 "/></g></g></g><g fill="#d9d9d9" fill-opacity="1"><g transform="translate(226.713983, 305.891189)"><g><path d="M 2.84375 -12.34375 C 3.769531 -12.601562 4.617188 -12.632812 5.390625 -12.4375 C 6.171875 -12.25 6.828125 -11.875 7.359375 -11.3125 C 7.890625 -10.757812 8.273438 -10.066406 8.515625 -9.234375 C 8.554688 -9.078125 8.59375 -8.910156 8.625 -8.734375 C 8.664062 -8.566406 8.6875 -8.414062 8.6875 -8.28125 L 2.25 -6.484375 C 2.695312 -4.921875 3.285156 -3.875 4.015625 -3.34375 C 4.742188 -2.8125 5.640625 -2.695312 6.703125 -3 C 7.421875 -3.195312 7.972656 -3.472656 8.359375 -3.828125 C 8.742188 -4.191406 9.066406 -4.648438 9.328125 -5.203125 L 9.609375 -5.078125 C 9.378906 -4.160156 8.957031 -3.375 8.34375 -2.71875 C 7.726562 -2.0625 6.898438 -1.585938 5.859375 -1.296875 C 4.835938 -1.003906 3.863281 -0.96875 2.9375 -1.1875 C 2.019531 -1.40625 1.222656 -1.859375 0.546875 -2.546875 C -0.117188 -3.242188 -0.613281 -4.160156 -0.9375 -5.296875 C -1.269531 -6.484375 -1.289062 -7.5625 -1 -8.53125 C -0.707031 -9.507812 -0.21875 -10.328125 0.46875 -10.984375 C 1.15625 -11.640625 1.945312 -12.09375 2.84375 -12.34375 Z M 2.90625 -11.921875 C 2.476562 -11.804688 2.148438 -11.578125 1.921875 -11.234375 C 1.703125 -10.890625 1.597656 -10.375 1.609375 -9.6875 C 1.628906 -9 1.800781 -8.078125 2.125 -6.921875 L 5.8125 -7.953125 C 5.507812 -9.566406 5.128906 -10.679688 4.671875 -11.296875 C 4.222656 -11.921875 3.632812 -12.128906 2.90625 -11.921875 Z M 2.90625 -11.921875 "/></g></g></g></svg>